<?xml version="1.0" encoding="UTF-8" standalone="no"?>
<!DOCTYPE svg PUBLIC "-//W3C//DTD SVG 1.1//EN" "http://www.w3.org/Graphics/SVG/1.1/DTD/svg11.dtd">
<svg width="100%" height="100%" viewBox="0 0 959 718" version="1.1" xmlns="http://www.w3.org/2000/svg" xmlns:xlink="http://www.w3.org/1999/xlink" xml:space="preserve" xmlns:serif="http://www.serif.com/" style="fill-rule:evenodd;clip-rule:evenodd;stroke-linejoin:round;stroke-miterlimit:1.41421;">
    <g transform="matrix(1,0,0,1,324.196,-12.3589)">
        <rect x="19" y="201.53" width="42" height="24" style="fill:white;fill-opacity:0.4;"/>
    </g>
    <g transform="matrix(-1.15797,8.86674e-16,-8.86674e-16,-1.15797,757.624,567.831)">
        <rect x="233.51" y="292.64" width="42" height="24" style="fill:white;fill-opacity:0.4;"/>
    </g>
    <g transform="matrix(1,0,0,1,324.196,-12.3589)">
        <rect x="19" y="248.53" width="42" height="24" style="fill:white;fill-opacity:0.4;"/>
    </g>
    <g transform="matrix(-1.15797,8.86674e-16,-8.86674e-16,-1.15797,757.624,676.68)">
        <rect x="233.51" y="339.64" width="42" height="24" style="fill:white;fill-opacity:0.4;"/>
    </g>
    <g transform="matrix(1,0,0,1,324.196,-12.3589)">
        <rect x="19" y="295.53" width="42" height="24" style="fill:white;fill-opacity:0.4;"/>
    </g>
    <g transform="matrix(-1.15797,8.86674e-16,-8.86674e-16,-1.15797,757.624,785.529)">
        <rect x="233.51" y="386.64" width="42" height="24" style="fill:white;fill-opacity:0.4;"/>
    </g>
    <g transform="matrix(1,0,0,1,324.196,-12.3589)">
        <rect x="19" y="342.53" width="42" height="24" style="fill:white;fill-opacity:0.4;"/>
    </g>
    <g transform="matrix(-1.15797,8.86674e-16,-8.86674e-16,-1.15797,757.624,894.378)">
        <rect x="233.51" y="433.64" width="42" height="24" style="fill:white;fill-opacity:0.4;"/>
    </g>
    <g transform="matrix(1,0,0,1,324.196,-12.3589)">
        <rect x="19" y="389.53" width="42" height="24" style="fill:white;fill-opacity:0.4;"/>
    </g>
    <g transform="matrix(-1.15797,8.86674e-16,-8.86674e-16,-1.15797,757.624,1003.23)">
        <rect x="233.51" y="480.64" width="42" height="24" style="fill:white;fill-opacity:0.4;"/>
    </g>
    <g transform="matrix(1,0,0,1,324.196,-12.3589)">
        <rect x="19" y="436.53" width="42" height="24" style="fill:white;fill-opacity:0.4;"/>
    </g>
    <g transform="matrix(-1.15797,8.86674e-16,-8.86674e-16,-1.15797,757.624,1112.08)">
        <rect x="233.51" y="527.64" width="42" height="24" style="fill:white;fill-opacity:0.4;"/>
    </g>
    <g transform="matrix(1,0,0,1,324.196,-12.3589)">
        <rect x="19" y="483.53" width="42" height="24" style="fill:white;fill-opacity:0.4;"/>
    </g>
    <g transform="matrix(-1.15797,8.86674e-16,-8.86674e-16,-1.15797,757.624,1220.93)">
        <rect x="233.51" y="574.64" width="42" height="24" style="fill:white;fill-opacity:0.4;"/>
    </g>
    <g transform="matrix(1.15797,0,0,1.15797,307.741,-32.1947)">
        <rect x="190" y="424.53" width="98" height="12" style="fill:white;fill-opacity:0.4;"/>
    </g>
    <g transform="matrix(1.15797,0,0,1.15797,307.741,-32.1947)">
        <rect x="190" y="442.53" width="98" height="12" style="fill:white;fill-opacity:0.4;"/>
    </g>
    <g transform="matrix(1.15797,0,0,1.15797,307.741,-32.1947)">
        <rect x="190" y="460.53" width="98" height="12" style="fill:white;fill-opacity:0.4;"/>
    </g>
    <g transform="matrix(1.15797,0,0,1.15797,307.741,-32.1947)">
        <rect x="446" y="430.53" width="98" height="12" style="fill:white;fill-opacity:0.4;"/>
    </g>
    <g transform="matrix(1.15797,0,0,1.15797,307.741,-32.1947)">
        <rect x="446" y="448.53" width="98" height="12" style="fill:white;fill-opacity:0.4;"/>
    </g>
    <g transform="matrix(1.15797,0,0,1.15797,307.741,-32.1947)">
        <rect x="446" y="466.53" width="98" height="12" style="fill:white;fill-opacity:0.4;"/>
    </g>
    <g transform="matrix(1.15797,0,0,1.15797,307.741,-32.1947)">
        <rect x="190" y="478.53" width="98" height="12" style="fill:white;fill-opacity:0.4;"/>
    </g>
    <g transform="matrix(1.15797,0,0,1.15797,307.741,-32.1947)">
        <rect x="190" y="496.53" width="98" height="12" style="fill:white;fill-opacity:0.4;"/>
    </g>
    <g transform="matrix(1.15797,0,0,1.15797,307.741,-32.1947)">
        <rect x="190" y="514.53" width="98" height="12" style="fill:white;fill-opacity:0.4;"/>
    </g>
    <g transform="matrix(1.15797,0,0,1.15797,307.741,-32.1947)">
        <rect x="324" y="300.53" width="27" height="35" style="fill:white;fill-opacity:0.4;"/>
    </g>
    <g transform="matrix(-1.15797,8.86674e-16,-8.86674e-16,-1.15797,1365.56,809.847)">
        <rect x="503.51" y="391.64" width="27" height="35" style="fill:white;fill-opacity:0.4;"/>
    </g>
    <g transform="matrix(1.15797,0,0,1.15797,307.741,-32.1947)">
        <rect x="324" y="356.53" width="27" height="35" style="fill:white;fill-opacity:0.4;"/>
    </g>
    <g transform="matrix(-1.15797,8.86674e-16,-8.86674e-16,-1.15797,1365.56,939.539)">
        <rect x="503.51" y="447.64" width="27" height="35" style="fill:white;fill-opacity:0.4;"/>
    </g>
    <g transform="matrix(1.15797,0,0,1.15797,307.741,-32.1947)">
        <rect x="324" y="412.53" width="27" height="35" style="fill:white;fill-opacity:0.4;"/>
    </g>
    <g transform="matrix(-1.15797,8.86674e-16,-8.86674e-16,-1.15797,1365.56,1069.23)">
        <rect x="503.51" y="503.64" width="27" height="35" style="fill:white;fill-opacity:0.4;"/>
    </g>
    <g transform="matrix(1.15797,0,0,1.15797,307.741,-32.1947)">
        <rect x="324" y="468.53" width="27" height="35" style="fill:white;fill-opacity:0.4;"/>
    </g>
    <g transform="matrix(-1.15797,8.86674e-16,-8.86674e-16,-1.15797,1365.56,1198.92)">
        <rect x="503.51" y="559.64" width="27" height="35" style="fill:white;fill-opacity:0.4;"/>
    </g>
    <rect x="559" y="112.53" width="36" height="46" style="fill:white;fill-opacity:0.4;"/>
    <rect x="559" y="178.53" width="36" height="46" style="fill:white;fill-opacity:0.4;"/>
    <g transform="matrix(1.15797,0,0,1.15797,-67.6686,-17.8834)">
        <rect x="559" y="244.53" width="36" height="46" style="fill:white;fill-opacity:0.4;"/>
    </g>
    <g transform="matrix(1.15797,0,0,1.15797,-67.6686,-17.8834)">
        <rect x="559" y="310.53" width="36" height="46" style="fill:white;fill-opacity:0.4;"/>
    </g>
    <g transform="matrix(1.15797,0,0,1.15797,-67.6686,-17.8834)">
        <rect x="559" y="376.53" width="36" height="46" style="fill:white;fill-opacity:0.4;"/>
    </g>
    <g transform="matrix(1.15797,0,0,1.15797,-67.6686,-17.8834)">
        <rect x="559" y="442.53" width="36" height="46" style="fill:white;fill-opacity:0.4;"/>
    </g>
    <g transform="matrix(1.15797,0,0,1.15797,-67.6686,-17.8834)">
        <rect x="672.5" y="206.53" width="134" height="39" style="fill:white;fill-opacity:0.4;"/>
    </g>
    <g transform="matrix(1.15797,0,0,1.15797,-67.6686,-17.8834)">
        <rect x="673" y="290.53" width="134" height="39" style="fill:white;fill-opacity:0.4;"/>
    </g>
    <g transform="matrix(1.15797,0,0,1.15797,-67.6686,-17.8834)">
        <rect x="673.5" y="374.53" width="134" height="39" style="fill:white;fill-opacity:0.4;"/>
    </g>
    <rect x="30" y="125.53" width="18" height="38" style="fill:white;fill-opacity:0.4;"/>
    <g transform="matrix(1.33455,-0.731083,0.731083,1.33455,-616.398,596.231)">
        <g transform="matrix(1,0,0,1,-120.51,-91.11)">
            <path d="M918.56,95.65C910.132,95.569 901.708,96.077 893.35,97.17C893.35,93.851 890.619,91.12 887.3,91.12C883.981,91.12 881.25,93.851 881.25,97.17C872.892,96.077 864.468,95.569 856.04,95.65C837.39,95.65 822.26,97.65 822.26,100.19C822.26,102.73 837.38,104.73 856.04,104.73C864.468,104.811 872.892,104.303 881.25,103.21C881.25,103.938 881.382,104.66 881.64,105.34C880.459,106.067 879.738,107.359 879.738,108.746C879.738,109.961 880.291,111.111 881.24,111.87C878.273,112.882 875.865,115.097 874.61,117.97C872.937,116.692 870.913,115.956 868.81,115.86L806,113.06C801.368,106.862 794.068,103.206 786.33,103.21L746.79,103.21C738.987,103.206 731.633,106.924 727.01,113.21L667.35,115.88C665.404,115.966 663.521,116.6 661.92,117.71C660.745,115.193 658.673,113.202 656.11,112.13C657.262,111.396 657.961,110.122 657.961,108.756C657.961,107.014 656.823,105.462 655.16,104.94C655.327,104.379 655.412,103.796 655.41,103.21C663.768,104.303 672.192,104.811 680.62,104.73C699.27,104.73 714.4,102.73 714.4,100.19C714.4,97.65 699.28,95.65 680.62,95.65C672.192,95.569 663.768,96.077 655.41,97.17C655.41,93.878 652.702,91.17 649.41,91.17C646.118,91.17 643.41,93.878 643.41,97.17C635.052,96.077 626.628,95.569 618.2,95.65C599.55,95.65 584.42,97.65 584.42,100.19C584.42,102.73 599.54,104.73 618.2,104.73C626.628,104.811 635.052,104.303 643.41,103.21C643.41,103.938 643.542,104.66 643.8,105.34C642.616,106.067 641.891,107.36 641.891,108.75C641.891,110.038 642.513,111.249 643.56,112C639.236,113.63 636.356,117.789 636.35,122.41L636.35,129.87C636.355,135.944 641.327,140.951 647.4,141L651.83,141C655.349,141 658.666,139.328 660.76,136.5C662.6,138.215 665.005,139.201 667.52,139.27L726.02,140.91C727.887,143.858 730.359,146.377 733.27,148.3C727.67,153.99 705.83,179.22 709.35,223.68C709.35,223.68 712.88,230.23 721.95,223.68C721.95,223.68 716.15,174.14 748.62,153.74C749.745,156.971 752.809,159.149 756.23,159.15L760.38,159.15C752.116,162.41 746.655,170.434 746.655,179.318C746.655,191.211 756.442,200.998 768.335,200.998C780.228,200.998 790.015,191.211 790.015,179.318C790.015,170.434 784.554,162.41 776.29,159.15L780.44,159.15C783.861,159.149 786.925,156.971 788.05,153.74C820.52,174.14 814.72,223.68 814.72,223.68C823.79,230.23 827.32,223.68 827.32,223.68C831.32,172.76 802.11,147.06 802.11,147.06L801.58,147.06C803.73,145.358 805.582,143.31 807.06,141L868.64,139.28C871.287,139.22 873.811,138.145 875.69,136.28C877.767,139.273 881.187,141.061 884.83,141.06L889.26,141.06C895.371,141.06 900.4,136.031 900.4,129.92L900.4,122.46C900.399,118.073 897.806,114.078 893.8,112.29C895.071,111.586 895.863,110.243 895.863,108.79C895.863,107.055 894.733,105.508 893.08,104.98C893.247,104.419 893.332,103.836 893.33,103.25C901.688,104.343 910.112,104.851 918.54,104.77C937.19,104.77 952.32,102.77 952.32,100.23C952.32,97.69 937.22,95.65 918.56,95.65Z" style="fill:url(#_Linear1);fill-rule:nonzero;"/>
        </g>
        <circle cx="647.83" cy="87.06" r="20.44" style="fill:rgb(72,107,255);"/>
        <circle cx="647.83" cy="87.06" r="13.79" style="fill:rgb(72,107,255);"/>
        <circle cx="647.83" cy="87.06" r="13.79" style="fill:rgb(245,245,245);fill-opacity:0.2;"/>
        <circle cx="647.83" cy="87.06" r="9.03" style="fill:rgb(72,107,255);"/>
        <circle cx="647.83" cy="87.06" r="9.03" style="fill-opacity:0.25;"/>
        <g transform="matrix(1,0,0,1,-120.51,-91.11)">
            <path d="M736.48,147.74C736.48,147.74 708.91,172 712.71,220C712.71,220 716.04,226.18 724.6,220C724.6,220 717.47,159.14 765.01,147.73L736.48,147.74Z" style="fill:rgb(72,107,255);fill-rule:nonzero;"/>
        </g>
        <g transform="matrix(1,0,0,1,-120.51,-91.11)">
            <path d="M800.19,147.74C800.19,147.74 827.77,172 824,220C824,220 820.67,226.18 812.11,220C812.11,220 819.24,159.14 771.7,147.73L800.19,147.74Z" style="fill:rgb(72,107,255);fill-rule:nonzero;"/>
        </g>
        <path d="M688,30.493C688,22.086 681.174,15.26 672.767,15.26L619.553,15.26C611.146,15.26 604.32,22.086 604.32,30.493L604.32,46.387C604.32,54.794 611.146,61.62 619.553,61.62L672.767,61.62C681.174,61.62 688,54.794 688,46.387L688,30.493Z" style="fill:rgb(72,107,255);"/>
        <g transform="matrix(1,0,0,1,-120.51,-91.11)">
            <path d="M738.54,142.22L673.25,140.39C667.982,140.245 663.728,135.87 663.73,130.6L663.73,128.1C663.73,122.895 667.881,118.554 673.08,118.32L738.37,115.39C738.517,115.383 738.663,115.38 738.81,115.38C744.181,115.38 748.6,119.799 748.6,125.17L748.6,132.44C748.597,137.808 744.178,142.224 738.81,142.224C738.72,142.224 738.63,142.222 738.54,142.22Z" style="fill:rgb(72,107,255);fill-rule:nonzero;"/>
        </g>
        <g transform="matrix(1,0,0,1,-120.51,-91.11)">
            <path d="M797.66,142.22L862.95,140.39C868.218,140.245 872.472,135.87 872.47,130.6L872.47,128.1C872.47,122.895 868.319,118.554 863.12,118.32L797.83,115.39C797.683,115.383 797.537,115.38 797.39,115.38C792.019,115.38 787.6,119.799 787.6,125.17L787.6,132.44C787.603,137.808 792.022,142.224 797.39,142.224C797.48,142.224 797.57,142.222 797.66,142.22Z" style="fill:rgb(72,107,255);fill-rule:nonzero;"/>
        </g>
        <g transform="matrix(1,0,0,1,-120.51,-91.11)">
            <path d="M738.54,142.22L673.25,140.39C667.982,140.245 663.728,135.87 663.73,130.6L663.73,128.1C663.73,122.895 667.881,118.554 673.08,118.32L738.37,115.39C738.517,115.383 738.663,115.38 738.81,115.38C744.181,115.38 748.6,119.799 748.6,125.17L748.6,132.44C748.597,137.808 744.178,142.224 738.81,142.224C738.72,142.224 738.63,142.222 738.54,142.22Z" style="fill:rgb(245,245,245);fill-opacity:0.2;fill-rule:nonzero;"/>
        </g>
        <g transform="matrix(1,0,0,1,-120.51,-91.11)">
            <path d="M797.66,142.22L862.95,140.39C868.218,140.245 872.472,135.87 872.47,130.6L872.47,128.1C872.47,122.895 868.319,118.554 863.12,118.32L797.83,115.39C797.683,115.383 797.537,115.38 797.39,115.38C792.019,115.38 787.6,119.799 787.6,125.17L787.6,132.44C787.603,137.808 792.022,142.224 797.39,142.224C797.48,142.224 797.57,142.222 797.66,142.22Z" style="fill:rgb(245,245,245);fill-opacity:0.2;fill-rule:nonzero;"/>
        </g>
        <path d="M548.46,30.211C548.46,26.159 545.171,22.87 541.119,22.87L530.601,22.87C526.549,22.87 523.26,26.159 523.26,30.211L523.26,43.579C523.26,47.631 526.549,50.92 530.601,50.92L541.119,50.92C545.171,50.92 548.46,47.631 548.46,43.579L548.46,30.211Z" style="fill:rgb(72,107,255);"/>
        <path d="M772.4,30.211C772.4,26.159 769.111,22.87 765.059,22.87L754.541,22.87C750.489,22.87 747.2,26.159 747.2,30.211L747.2,43.579C747.2,47.631 750.489,50.92 754.541,50.92L765.059,50.92C769.111,50.92 772.4,47.631 772.4,43.579L772.4,30.211Z" style="fill:rgb(72,107,255);"/>
        <path d="M543.7,19.187C543.7,17.809 542.581,16.69 541.203,16.69L530.987,16.69C529.609,16.69 528.49,17.809 528.49,19.187L528.49,21.803C528.49,23.181 529.609,24.3 530.987,24.3L541.203,24.3C542.581,24.3 543.7,23.181 543.7,21.803L543.7,19.187Z" style="fill:rgb(72,107,255);"/>
        <path d="M541.33,7.599C541.33,5.53 539.65,3.85 537.581,3.85L533.669,3.85C531.6,3.85 529.92,5.53 529.92,7.599L529.92,17.221C529.92,19.29 531.6,20.97 533.669,20.97L537.581,20.97C539.65,20.97 541.33,19.29 541.33,17.221L541.33,7.599Z" style="fill:rgb(72,107,255);"/>
        <ellipse cx="506.14" cy="12.41" rx="31.86" ry="4.28" style="fill:rgb(72,107,255);"/>
        <ellipse cx="565.1" cy="12.41" rx="31.86" ry="4.28" style="fill:rgb(72,107,255);"/>
        <path d="M768.11,19.187C768.11,17.809 766.991,16.69 765.613,16.69L755.397,16.69C754.019,16.69 752.9,17.809 752.9,19.187L752.9,21.803C752.9,23.181 754.019,24.3 755.397,24.3L765.613,24.3C766.991,24.3 768.11,23.181 768.11,21.803L768.11,19.187Z" style="fill:rgb(72,107,255);"/>
        <path d="M765.74,7.599C765.74,5.53 764.06,3.85 761.991,3.85L758.079,3.85C756.01,3.85 754.33,5.53 754.33,7.599L754.33,17.221C754.33,19.29 756.01,20.97 758.079,20.97L761.991,20.97C764.06,20.97 765.74,19.29 765.74,17.221L765.74,7.599Z" style="fill:rgb(72,107,255);"/>
        <ellipse cx="730.56" cy="12.41" rx="31.86" ry="4.28" style="fill:rgb(72,107,255);"/>
        <ellipse cx="789.51" cy="12.41" rx="31.86" ry="4.28" style="fill:rgb(72,107,255);"/>
        <ellipse cx="506.14" cy="12.41" rx="31.86" ry="4.28" style="fill:rgb(245,245,245);fill-opacity:0.2;"/>
        <ellipse cx="565.1" cy="12.41" rx="31.86" ry="4.28" style="fill:rgb(245,245,245);fill-opacity:0.2;"/>
        <ellipse cx="730.56" cy="12.41" rx="31.86" ry="4.28" style="fill:rgb(245,245,245);fill-opacity:0.2;"/>
        <ellipse cx="789.51" cy="12.41" rx="31.86" ry="4.28" style="fill:rgb(245,245,245);fill-opacity:0.2;"/>
        <path d="M666.85,57.818C666.85,55.059 664.611,52.82 661.852,52.82L633.808,52.82C631.049,52.82 628.81,55.059 628.81,57.818L628.81,63.032C628.81,65.791 631.049,68.03 633.808,68.03L661.852,68.03C664.611,68.03 666.85,65.791 666.85,63.032L666.85,57.818Z" style="fill:rgb(72,107,255);"/>
        <path d="M666.85,57.818C666.85,55.059 664.611,52.82 661.852,52.82L633.808,52.82C631.049,52.82 628.81,55.059 628.81,57.818L628.81,63.032C628.81,65.791 631.049,68.03 633.808,68.03L661.852,68.03C664.611,68.03 666.85,65.791 666.85,63.032L666.85,57.818Z" style="fill:rgb(245,245,245);fill-opacity:0.2;"/>
        <path d="M682.36,131.85L597.65,131.85L597.65,216.56L704,216.56L704,131.85L682.36,131.85Z" style="fill:rgb(103,100,126);fill-rule:nonzero;"/>
        <rect x="682.36" y="131.85" width="21.65" height="84.71" style="fill-opacity:0.25;"/>
        <rect x="608" y="145.97" width="16" height="8.47" style="fill-opacity:0.25;"/>
        <g transform="matrix(1,0,0,1,-120.51,-91.11)">
            <path d="M764.45,213C768.05,218.1 767.45,224.67 767.45,224.67C767.45,224.67 761.07,222.98 757.45,217.88C753.83,212.78 752.45,207.56 754.45,206.21C756.45,204.86 760.85,207.89 764.45,213Z" style="fill:rgb(103,100,126);fill-rule:nonzero;"/>
        </g>
        <g transform="matrix(1,0,0,1,-120.51,-91.11)">
            <path d="M770.54,213C766.94,218.1 767.54,224.67 767.54,224.67C767.54,224.67 773.92,222.98 777.54,217.88C781.16,212.78 782.54,207.56 780.54,206.21C778.54,204.86 774.14,207.89 770.54,213Z" style="fill:rgb(103,100,126);fill-rule:nonzero;"/>
        </g>
    </g>
    <g transform="matrix(1.15797,0,0,1.15797,168.194,-137.697)">
        <path d="M324.48,444.59L324.37,444.93C324.417,444.82 324.454,444.706 324.48,444.59Z" style="fill:url(#_Linear2);fill-rule:nonzero;"/>
    </g>
    <g transform="matrix(1.15797,0,0,1.15797,168.194,-137.697)">
        <path d="M276.5,602.74C276.5,602.74 262.32,598.6 261.73,596.83C261.14,595.06 249.32,629.32 249.32,629.32L261.14,637.59C261.14,637.59 273.55,630.5 280.05,631.68C286.55,632.86 276.5,602.74 276.5,602.74Z" style="fill:rgb(76,76,86);fill-rule:nonzero;"/>
    </g>
    <g transform="matrix(1.15797,0,0,1.15797,168.194,-137.697)">
        <path d="M581.94,687.22C581.94,687.22 583.71,703.22 603.21,704.94C622.71,706.66 590.21,720.94 590.21,720.94L565.4,722.71C565.4,722.71 564.81,712.71 560.67,704.99C556.53,697.27 581.94,687.22 581.94,687.22Z" style="fill:rgb(76,76,86);fill-rule:nonzero;"/>
    </g>
    <g transform="matrix(1.15797,0,0,1.15797,168.194,-137.697)">
        <path d="M376.94,507.62C376.94,507.62 365.72,524.75 373.4,551.93C373.4,551.93 375.76,564.93 373.99,569.65C372.22,574.37 370.45,612.19 370.45,612.19C370.45,612.19 366.91,616.92 360.45,613.96C353.99,611 274.2,600.96 274.2,600.96C274.2,600.96 261.2,623.41 268.29,636.96C268.29,636.96 327.96,643.46 349.82,650.55C371.68,657.64 388.82,667.09 402.99,650.55C417.16,634.01 431.35,576.11 431.35,576.11L478.61,612.11L499.29,636.33C499.29,636.33 528.24,677.09 533.56,677.68C538.88,678.27 563.69,717.26 563.69,717.26L593.82,684.77C593.82,684.77 557.13,664.18 553,653.54C548.87,642.9 528.78,612.78 528.78,612.78C528.78,612.78 522.28,589.15 510.47,583.83C510.47,583.83 467.93,533.02 463.8,509.39C459.67,485.76 392.89,497 392.89,497L376.94,507.62Z" style="fill:rgb(95,93,126);fill-rule:nonzero;"/>
    </g>
    <g transform="matrix(1.15797,0,0,1.15797,168.194,-137.697)">
        <path d="M596.71,712C596.71,712 600.85,702.55 599.71,700.18C598.57,697.81 615,706.12 615,706.12C615,706.12 627.41,710.85 637.45,706.71C637.45,706.71 646.31,713.21 638.63,717.93C630.95,722.65 568.92,737.43 568.92,737.43C568.92,737.43 559.47,723.84 567.15,716.16L596.71,712Z" style="fill:rgb(152,99,101);fill-rule:nonzero;"/>
    </g>
    <g transform="matrix(1.15797,0,0,1.15797,168.194,-137.697)">
        <path d="M553,653.54C548.86,642.91 528.78,612.78 528.78,612.78C528.78,612.78 522.28,589.15 510.47,583.83C510.47,583.83 467.93,533.02 463.8,509.39C462.95,504.52 459.43,501.13 454.39,498.82L446.15,523.57L434.9,557.37C432.73,563.89 430.67,571.16 430.9,577.9C431.19,576.78 431.34,576.16 431.34,576.16L478.6,612.16L499.28,636.38C499.28,636.38 528.23,677.14 533.55,677.73C538.87,678.32 563.68,717.31 563.68,717.31L593.81,684.82C593.81,684.82 557.13,664.18 553,653.54Z" style="fill-opacity:0.1;fill-rule:nonzero;"/>
    </g>
    <g transform="matrix(1.15797,0,0,1.15797,168.194,-137.697)">
        <path d="M473.23,355.79C473.23,355.79 468.23,368.49 474.71,380.31C481.19,392.13 472.05,413.1 466.14,414.31C460.23,415.52 436.6,400.13 434.83,390.09C433.06,380.05 442.51,359.37 437.83,345.78L473.23,355.79Z" style="fill:rgb(253,194,204);fill-rule:nonzero;"/>
    </g>
    <g transform="matrix(1.15797,0,0,1.15797,168.194,-137.697)">
        <path d="M441.33,377.65C441.33,377.65 459.64,414.87 479.73,388.28C479.73,388.28 499.82,429.04 493.32,435.54C488.698,440.038 483.762,444.202 478.55,448L467.92,522.44C467.92,522.44 407.66,501.76 382.26,505.31L421.26,411.97L441.33,377.65Z" style="fill-opacity:0.1;fill-rule:nonzero;"/>
    </g>
    <g transform="matrix(1.15797,0,0,1.15797,168.194,-137.697)">
        <path d="M441.33,375.88C441.33,375.88 459.64,413.1 479.73,386.51C479.73,386.51 499.82,427.27 493.32,433.77C488.696,438.251 483.76,442.398 478.55,446.18L467.92,520.62C467.92,520.62 407.66,499.94 382.26,503.49L421.26,410.15L441.33,375.88Z" style="fill:rgb(211,153,153);fill-rule:nonzero;"/>
    </g>
    <g transform="matrix(0.760754,0.873011,0.873011,-0.760754,-56.8836,319.883)">
        <path d="M310.77,419C310.77,419 300.77,465.08 296,466.85C291.23,468.62 286,504.66 298.36,503.48C310.72,502.3 310.77,473.35 310.77,473.35C310.77,473.35 323.77,438.49 329.08,434.35C334.39,430.21 310.77,419 310.77,419Z" style="fill:rgb(253,194,204);fill-rule:nonzero;"/>
    </g>
    <g transform="matrix(1.15797,0,0,1.15797,168.194,-137.697)">
        <path d="M542.95,440.27C542.95,440.27 569.54,415.46 570.13,411.32C570.72,407.18 586.67,385.92 595.53,391.82C604.39,397.72 588.44,425.49 585.53,426.09C582.62,426.69 547.72,465.09 547.72,465.09L542.95,440.27Z" style="fill:rgb(253,194,204);fill-rule:nonzero;"/>
    </g>
    <g transform="matrix(1.15797,0,0,1.15797,168.194,-137.697)">
        <path d="M438.67,364.36C438.67,364.36 435.42,368.2 413.56,365.84C391.7,363.48 386.38,367.61 380.48,370.57C374.58,373.53 370.044,339.417 346.43,344.28C346.43,344.28 335.382,356.5 333.022,361.81C333.022,361.81 337.488,384.284 344.488,385.424C351.488,386.564 372.17,409.52 372.17,409.52C372.17,409.52 366.85,461.52 373.94,479.82C381.03,498.12 370.4,516.45 370.4,516.45C370.4,516.45 420.62,500.45 443.07,508.18C443.07,508.18 456.07,449.69 444.84,426.06C433.61,402.43 449.6,380 449.6,380L438.67,364.36Z" style="fill:rgb(236,117,128);fill-rule:nonzero;"/>
    </g>
    <g transform="matrix(1.15797,0,0,1.15797,168.194,-137.697)">
        <path d="M471.76,375C471.76,375 480.33,387.7 492.14,391.84C503.95,395.98 508.68,421.38 508.68,421.38L526.4,445.6L547.67,435C547.67,435 548.26,463.95 554.17,463.36C554.17,463.36 539.4,482.27 527.58,482.86C515.76,483.45 482.69,455 482.69,455C482.69,455 479.15,481 481.51,493.4C483.87,505.8 466.74,543.62 466.74,543.62L443.11,538.89C443.11,538.89 455.52,491.63 470.88,483.95C470.88,483.95 470.88,452.05 468.52,444.37C466.16,436.69 483.88,407.74 481.52,401.83C480.19,398.52 474.99,391.43 472.36,384.99C471.153,381.798 470.944,378.313 471.76,375Z" style="fill-opacity:0.1;fill-rule:nonzero;"/>
    </g>
    <g transform="matrix(1.15797,0,0,1.15797,168.194,-137.697)">
        <path d="M473.53,373.81C473.53,373.81 482.1,386.51 493.91,390.65C505.72,394.79 510.45,420.19 510.45,420.19L528.17,444.41L549.44,433.78C549.44,433.78 550.03,462.73 555.94,462.14C555.94,462.14 541.17,481.05 529.35,481.64C517.53,482.23 484.45,453.87 484.45,453.87C484.45,453.87 480.91,479.87 483.27,492.27C485.63,504.67 468.5,542.49 468.5,542.49L444.87,537.76C444.87,537.76 457.28,490.5 472.64,482.82C472.64,482.82 472.64,450.92 470.28,443.24C467.92,435.56 485.64,406.61 483.28,400.7C481.95,397.39 476.75,390.3 474.12,383.86C472.904,380.649 472.698,377.141 473.53,373.81Z" style="fill-opacity:0.1;fill-rule:nonzero;"/>
    </g>
    <g transform="matrix(1.15797,0,0,1.15797,168.194,-137.697)">
        <path d="M472.35,373.81C472.35,373.81 480.92,386.51 492.73,390.65C504.54,394.79 509.27,420.19 509.27,420.19L527,444.41L548.27,433.78C548.27,433.78 548.86,462.73 554.77,462.14C554.77,462.14 540,481.05 528.18,481.64C516.36,482.23 483.28,453.87 483.28,453.87C483.28,453.87 479.74,479.87 482.1,492.27C484.46,504.67 467.33,542.49 467.33,542.49L443.7,537.76C443.7,537.76 456.11,490.5 471.47,482.82C471.47,482.82 471.47,450.92 469.11,443.24C466.75,435.56 484.47,406.61 482.11,400.7C480.78,397.39 475.58,390.3 472.95,383.86C471.731,380.65 471.521,377.142 472.35,373.81Z" style="fill:rgb(236,117,128);fill-rule:nonzero;"/>
    </g>
    <g transform="matrix(1.15797,0,0,1.15797,168.194,-137.697)">
        <path d="M473.35,374.81C473.35,374.81 481.92,387.51 493.73,391.65C505.54,395.79 510.27,421.19 510.27,421.19L528,445.41L549.27,434.78C549.27,434.78 549.86,463.73 555.77,463.14C555.77,463.14 541,482.05 529.18,482.64C517.36,483.23 484.28,454.87 484.28,454.87C484.28,454.87 480.74,480.87 483.1,493.27C485.46,505.67 468.33,543.49 468.33,543.49L444.7,538.76C444.7,538.76 457.11,491.5 472.47,483.82C472.47,483.82 472.47,451.92 470.11,444.24C467.75,436.56 485.47,407.61 483.11,401.7C481.78,398.39 476.58,391.3 473.95,384.86C472.731,381.65 472.521,378.142 473.35,374.81Z" style="fill-opacity:0.05;fill-rule:nonzero;"/>
    </g>
    <g transform="matrix(1.15797,0,0,1.15797,168.194,-137.697)">
        <path d="M267.64,596.83C267.64,596.83 250.51,588.56 247.55,592.1C244.59,595.64 228.05,663.58 235.73,668.31C243.41,673.04 244,669.49 250.5,658.86C257,648.23 265.86,634.05 272.36,634.64C272.36,634.64 253.45,628.14 254.05,625.78C254.65,623.42 263.51,596.24 267.64,596.83Z" style="fill:rgb(152,99,101);fill-rule:nonzero;"/>
    </g>
    <g transform="matrix(1.15797,0,0,1.15797,168.194,-137.697)">
        <path d="M438.86,361C448.416,368.241 461.473,368.975 471.78,362.85C472.065,360.839 472.554,358.862 473.24,356.95L437.79,346.95C439.25,351.12 439.35,356 438.86,361Z" style="fill-opacity:0.1;fill-rule:nonzero;"/>
    </g>
    <g transform="matrix(1.15797,0,0,1.15797,168.194,-137.697)">
        <path d="M460.78,337.89C467.98,338.51 476.78,337.16 479.43,332.26C480.2,330.85 480.36,329.26 481.14,327.89C483.4,323.83 489.86,322.17 495.05,319.89C500.295,317.749 504.891,314.274 508.38,309.81C506.345,309.302 504.211,309.346 502.2,309.94C501.95,307.21 505.1,304.09 502.65,302.01C501.13,300.72 498.3,300.84 496.13,301.48C493.96,302.12 492,303.17 489.69,303.48C485.69,303.97 481.9,302.03 479.04,299.93C476.18,297.83 473.5,295.38 469.68,294.39C462.1,292.39 454.57,296.94 446.96,298.84C431.35,302.75 423.78,306.99 428.02,320.56C431.16,330.61 447.68,336.76 460.78,337.89Z" style="fill:rgb(134,90,97);fill-rule:nonzero;"/>
    </g>
    <g transform="matrix(1.15797,0,0,1.15797,307.741,-32.1947)">
        <circle cx="336.18" cy="245.18" r="29.54" style="fill:rgb(253,194,204);"/>
    </g>
    <g transform="matrix(1.15797,0,0,1.15797,168.194,-137.697)">
        <path d="M433.73,331.79C435.16,325.99 439.29,320.58 445.04,318.97C449.93,317.6 455.13,319.09 459.91,320.82C464.69,322.55 469.56,324.57 474.63,324.27C479.7,323.97 485.02,320.47 485.4,315.41C485.492,314.627 485.364,313.834 485.03,313.12C484.514,312.28 483.786,311.59 482.92,311.12C475.49,306.38 467.04,302.65 458.23,302.79C450.98,302.91 444.05,305.63 437.31,308.31C428.81,311.69 419.14,316.42 417.39,325.4C416.39,330.7 418.5,336.09 421.09,340.83C422.59,343.57 429.85,357.95 434.65,355.58C436.59,354.66 432.81,335.51 433.73,331.79Z" style="fill-opacity:0.1;fill-rule:nonzero;"/>
    </g>
    <g transform="matrix(1.15797,0,0,1.15797,168.194,-137.697)">
        <path d="M434.91,330.61C436.34,324.81 440.47,319.4 446.22,317.79C451.11,316.42 456.31,317.91 461.09,319.64C465.87,321.37 470.74,323.39 475.81,323.09C480.88,322.79 486.2,319.29 486.58,314.23C486.672,313.447 486.544,312.654 486.21,311.94C485.694,311.1 484.966,310.41 484.1,309.94C476.67,305.2 468.22,301.47 459.41,301.61C452.16,301.73 445.23,304.45 438.49,307.13C429.99,310.51 420.32,315.24 418.57,324.22C417.57,329.52 419.68,334.91 422.27,339.65C423.77,342.39 431.03,356.77 435.83,354.4C437.77,353.48 434,334.33 434.91,330.61Z" style="fill:rgb(134,90,97);fill-rule:nonzero;"/>
    </g>
    <g transform="matrix(1.15797,0,0,1.15797,168.194,-137.697)">
        <path d="M237.51,668.91C229.83,664.18 246.37,596.24 249.33,592.7C250.62,591.15 254.64,591.86 258.75,593.16C254.09,591.53 249.04,590.33 247.56,592.16C244.56,595.7 228.06,663.64 235.74,668.37C237.046,669.258 238.493,669.917 240.02,670.32C239.153,669.906 238.314,669.435 237.51,668.91Z" style="fill:white;fill-opacity:0.5;fill-rule:nonzero;"/>
    </g>
    <g transform="matrix(1.15797,0,0,1.15797,168.194,-137.697)">
        <path d="M640.81,710.34C641.61,712.34 641.37,714.73 638.06,716.76C630.38,721.49 568.35,736.26 568.35,736.26C567.733,735.336 567.169,734.378 566.66,733.39C567.319,734.794 568.082,736.148 568.94,737.44C569.798,738.732 630.94,722.67 638.65,717.94C642.62,715.5 642.17,712.58 640.81,710.34Z" style="fill:white;fill-opacity:0.5;fill-rule:nonzero;"/>
    </g>
    <g>
        <g opacity="0.05">
            <g transform="matrix(1.15797,0,0,1.15797,168.194,-137.697)">
                <path d="M330.47,439.08C325.56,431.18 312,419 312,419C322,388.28 379.35,372.92 385.26,370C388.52,368.37 391.6,366.38 397.38,365.32C388.38,365.98 384.59,368.56 380.54,370.59C374.63,373.59 317.33,388.9 307.28,419.59C307.28,419.59 328.86,438.9 327.47,444.66C328.142,442.641 329.156,440.754 330.47,439.08Z" style="fill-rule:nonzero;"/>
            </g>
            <g transform="matrix(1.15797,0,0,1.15797,168.194,-137.697)">
                <path d="M327.42,444.67L327.31,445C327.357,444.894 327.393,444.783 327.42,444.67Z" style="fill-rule:nonzero;"/>
            </g>
            <g transform="matrix(1.15797,0,0,1.15797,168.194,-137.697)">
                <path d="M439.35,365.33L438.67,364.33C438.67,364.33 437.92,365.21 434.74,365.87C436.287,365.794 437.827,365.613 439.35,365.33Z" style="fill-rule:nonzero;"/>
            </g>
            <g transform="matrix(1.15797,0,0,1.15797,168.194,-137.697)">
                <path d="M338,436.17C338.894,436.085 339.766,435.849 340.58,435.47C339.68,435.52 338.801,435.758 338,436.17Z" style="fill-rule:nonzero;"/>
            </g>
            <g transform="matrix(1.15797,0,0,1.15797,168.194,-137.697)">
                <path d="M414.86,506.88C425.43,505.72 435.75,505.7 443.1,508.21C443.1,508.21 443.24,507.59 443.47,506.48C435.41,504.91 425.06,505.46 414.86,506.88Z" style="fill-rule:nonzero;"/>
            </g>
            <g transform="matrix(1.15797,0,0,1.15797,168.194,-137.697)">
                <path d="M375.68,514.93C377.68,510.93 384.85,495.11 378.68,479.26C371.59,460.95 376.91,408.96 376.91,408.96C376.91,408.96 374.91,410.96 371.79,413.96C370.7,426.85 368.12,464.8 373.96,479.89C381.05,498.2 370.42,516.52 370.42,516.52C370.42,516.52 372.39,515.86 375.68,514.93Z" style="fill-rule:nonzero;"/>
            </g>
        </g>
    </g>
    <defs>
        <linearGradient id="_Linear1" x1="0" y1="0" x2="1" y2="0" gradientUnits="userSpaceOnUse" gradientTransform="matrix(8.29637e-15,-135.49,135.49,8.29637e-15,768.34,226.6)"><stop offset="0" style="stop-color:rgb(128,128,128);stop-opacity:0.247059"/><stop offset="0.54" style="stop-color:rgb(128,128,128);stop-opacity:0.117647"/><stop offset="1" style="stop-color:rgb(128,128,128);stop-opacity:0.0980392"/></linearGradient>
        <linearGradient id="_Linear2" x1="0" y1="0" x2="1" y2="0" gradientUnits="userSpaceOnUse" gradientTransform="matrix(2.0819e-17,-0.34,0.34,2.0819e-17,324.42,444.93)"><stop offset="0" style="stop-color:rgb(128,128,128);stop-opacity:0.247059"/><stop offset="0.54" style="stop-color:rgb(128,128,128);stop-opacity:0.117647"/><stop offset="1" style="stop-color:rgb(128,128,128);stop-opacity:0.0980392"/></linearGradient>
    </defs>
</svg>
