<?xml version="1.0" encoding="UTF-8" standalone="no"?>
<!DOCTYPE svg PUBLIC "-//W3C//DTD SVG 1.1//EN" "http://www.w3.org/Graphics/SVG/1.1/DTD/svg11.dtd">
<svg width="100%" height="100%" viewBox="0 0 1016 784" version="1.1" xmlns="http://www.w3.org/2000/svg" xmlns:xlink="http://www.w3.org/1999/xlink" xml:space="preserve" xmlns:serif="http://www.serif.com/" style="fill-rule:evenodd;clip-rule:evenodd;stroke-miterlimit:10;">
    <g transform="matrix(1.3007,0,0,1.3007,-493.162,-195.619)">
        <g transform="matrix(1,0,0,1,293.332,-2.77525)">
            <path d="M651.66,291.581C651.66,290.609 650.871,289.82 649.899,289.82L644.561,289.82C643.589,289.82 642.8,290.609 642.8,291.581L642.8,361.079C642.8,362.051 643.589,362.84 644.561,362.84L649.899,362.84C650.871,362.84 651.66,362.051 651.66,361.079L651.66,291.581Z" style="fill:rgb(58,55,104);"/>
        </g>
        <g transform="matrix(1,0,0,1,293.332,-2.77525)">
            <path d="M353.34,234.371C353.34,233.399 352.551,232.61 351.579,232.61L350.131,232.61C349.159,232.61 348.37,233.399 348.37,234.371L348.37,254.889C348.37,255.861 349.159,256.65 350.131,256.65L351.579,256.65C352.551,256.65 353.34,255.861 353.34,254.889L353.34,234.371Z" style="fill:rgb(58,55,104);"/>
        </g>
        <g transform="matrix(1,0,0,1,293.332,-2.77525)">
            <path d="M353.79,278.391C353.79,277.419 353.001,276.63 352.029,276.63L349.951,276.63C348.979,276.63 348.19,277.419 348.19,278.391L348.19,316.709C348.19,317.681 348.979,318.47 349.951,318.47L352.029,318.47C353.001,318.47 353.79,317.681 353.79,316.709L353.79,278.391Z" style="fill:rgb(58,55,104);"/>
        </g>
        <g transform="matrix(1,0,0,1,293.332,-2.77525)">
            <path d="M353.61,334.871C353.61,333.899 352.821,333.11 351.849,333.11L350.041,333.11C349.069,333.11 348.28,333.899 348.28,334.871L348.28,373.549C348.28,374.521 349.069,375.31 350.041,375.31L351.849,375.31C352.821,375.31 353.61,374.521 353.61,373.549L353.61,334.871Z" style="fill:rgb(58,55,104);"/>
        </g>
        <g transform="matrix(1,0,0,1,293.332,-2.77525)">
            <path d="M647.58,183.146C647.58,166.602 634.148,153.17 617.604,153.17L381.156,153.17C364.612,153.17 351.18,166.602 351.18,183.146L351.18,725.584C351.18,742.128 364.612,755.56 381.156,755.56L617.604,755.56C634.148,755.56 647.58,742.128 647.58,725.584L647.58,183.146Z" style="fill:rgb(58,55,104);"/>
        </g>
        <g transform="matrix(1,0,0,1,198.102,-32.9553)">
            <path d="M701,199L667,199L667,203.09C667,213.722 658.252,222.47 647.62,222.47C647.617,222.47 647.613,222.47 647.61,222.47L539.48,222.47C539.477,222.47 539.473,222.47 539.47,222.47C528.838,222.47 520.09,213.722 520.09,203.09C520.09,203.09 520.09,203.09 520.09,203.09L520.09,199L488.26,199C475.346,199 464.72,209.626 464.72,222.54L464.72,746.51C464.72,759.424 475.346,770.05 488.26,770.05L701,770.05C713.914,770.05 724.54,759.424 724.54,746.51L724.54,222.58C724.54,222.567 724.54,222.553 724.54,222.54C724.54,209.626 713.914,199 701,199C701,199 701,199 701,199Z" style="fill:white;fill-rule:nonzero;"/>
        </g>
        <g transform="matrix(1,0,0,1,293.332,-2.77525)">
            <path d="M512.18,174.135C512.18,172.493 510.847,171.16 509.205,171.16L473.765,171.16C472.123,171.16 470.79,172.493 470.79,174.135L470.79,176.585C470.79,178.227 472.123,179.56 473.765,179.56L509.205,179.56C510.847,179.56 512.18,178.227 512.18,176.585L512.18,174.135Z" style="fill:rgb(230,232,236);"/>
        </g>
        <g transform="matrix(1,0,0,1,293.332,-2.77525)">
            <circle cx="523.21" cy="175.36" r="4.77" style="fill:rgb(230,232,236);"/>
        </g>
    </g>
    <g transform="matrix(0.683729,0,0,0.782372,171.406,106.942)">
        <ellipse cx="538.99" cy="701.56" rx="284.54" ry="26.54" style="fill:rgb(72,107,255);fill-opacity:0.1;"/>
        <g transform="matrix(1,0,0,1,-92.22,-58.23)">
            <path d="M800.89,507.11C805.89,515.24 835.08,529.77 835.08,529.77C835.08,529.77 835.32,497.16 830.33,489.03C827.191,483.919 821.608,480.796 815.61,480.796C806.134,480.796 798.336,488.594 798.336,498.07C798.336,501.261 799.22,504.391 800.89,507.11Z" style="fill:rgb(72,107,255);fill-rule:nonzero;"/>
        </g>
        <rect x="286.29" y="6.19" width="498.5" height="26.89" style="fill:rgb(246,247,249);"/>
        <rect x="286.29" y="6.19" width="498.5" height="26.89" style="fill:rgb(72,107,255);fill-opacity:0.2;"/>
        <circle cx="299.4" cy="19.63" r="4.56" style="fill:rgb(246,247,249);"/>
        <circle cx="311.76" cy="19.63" r="4.56" style="fill:rgb(246,247,249);"/>
        <circle cx="324.12" cy="19.63" r="4.56" style="fill:rgb(246,247,249);"/>
        <rect x="375.26" y="74.15" width="320.55" height="12.55" style="fill:rgb(72,107,255);fill-opacity:0.2;"/>
        <rect x="653.22" y="74.15" width="42.59" height="12.55" style="fill:rgb(72,107,255);"/>
        <rect x="329.32" y="330.62" width="201.72" height="144.49" style="fill:rgb(72,107,255);fill-opacity:0.04;"/>
        <rect x="329.32" y="143.19" width="201.72" height="144.49" style="fill:rgb(72,107,255);fill-opacity:0.04;"/>
        <rect x="329.32" y="515.61" width="201.72" height="144.49" style="fill:rgb(72,107,255);fill-opacity:0.04;"/>
        <rect x="540.04" y="330.62" width="201.72" height="144.49" style="fill:rgb(72,107,255);fill-opacity:0.04;"/>
        <rect x="540.04" y="143.19" width="201.72" height="144.49" style="fill:rgb(72,107,255);fill-opacity:0.04;"/>
        <rect x="540.04" y="515.61" width="201.72" height="144.49" style="fill:rgb(72,107,255);fill-opacity:0.04;"/>
        <g transform="matrix(1,0,0,1,-92.22,-58.23)">
            <path d="M683.83,229.34C683.83,229.34 682,224.77 694.34,225.91C706.68,227.05 742.11,230.99 757.43,227.54C772.75,224.09 781.88,222.99 780.97,227.54C780.06,232.09 754.46,242.37 754.46,242.37L721.31,245.8L696.86,241.91L683.73,234.14L683.83,229.34Z" style="fill:rgb(72,107,255);fill-rule:nonzero;"/>
        </g>
        <g transform="matrix(1,0,0,1,-92.22,-58.23)">
            <path d="M781,227.54C780.08,232.09 754.49,242.37 754.49,242.37L721.34,245.8L696.89,241.92L683.77,234.15L683.86,229.35C683.6,228.541 683.882,227.651 684.56,227.14C685.69,226.14 688.33,225.36 694.37,225.92C706.72,227.06 742.14,230.99 757.46,227.54C769.94,224.73 778.32,223.48 780.46,225.54C780.997,226.053 781.206,226.826 781,227.54Z" style="fill-opacity:0.1;fill-rule:nonzero;"/>
        </g>
        <g transform="matrix(1,0,0,1,-92.22,-58.23)">
            <path d="M800.7,296.77C779.371,300.876 759.255,309.785 741.88,322.82C741.001,320.482 739.345,318.515 737.19,317.25C735.718,316.337 734.112,315.662 732.43,315.25C730.9,314.86 729.43,315.79 728.08,317.13C726.527,318.849 725.224,320.778 724.21,322.86C700.9,306.86 665.54,296.65 665.54,296.65L665.54,293.45C665.54,292.82 665.65,292.06 665.77,291.2C665.89,290.34 666.04,289.58 666.23,288.65C669.23,273.39 681.09,238.52 681.09,238.52L694.5,238.52L720.5,243.92L749.75,242.13L779.21,236L783.03,235.2C789.4,240.2 796.63,275.2 799.47,290.1C799.83,291.99 800.11,293.55 800.32,294.7C800.57,296 800.7,296.77 800.7,296.77Z" style="fill:rgb(72,107,255);fill-rule:nonzero;"/>
        </g>
        <g transform="matrix(1,0,0,1,-92.22,-58.23)">
            <path d="M670.38,290.16C671.15,275.51 682.79,243.76 684.76,238.49L681.09,238.49C681.09,238.49 668.53,275.49 665.98,289.93C665.974,289.966 665.974,290.004 665.98,290.04C665.91,290.43 665.84,290.81 665.79,291.17C665.67,292.03 665.59,292.79 665.56,293.42L665.56,296.62C665.56,296.62 700.92,306.84 724.23,322.83C725.244,320.748 726.547,318.819 728.1,317.1C719.19,309 685.4,295.8 670.38,290.16Z" style="fill:rgb(72,107,255);fill-rule:nonzero;"/>
        </g>
        <g transform="matrix(1,0,0,1,-92.22,-58.23)">
            <path d="M800.32,294.66C800.23,294.15 800.12,293.56 800,292.91C799.85,292.07 799.67,291.12 799.47,290.06C796.63,275.14 789.4,240.13 783.03,235.16L779.21,235.96C781.53,242.19 796.48,282.87 795.21,290.81C770.21,295.81 744.87,312.06 737.21,317.25C739.365,318.515 741.021,320.482 741.9,322.82C759.275,309.785 779.391,300.876 800.72,296.77C822.049,292.664 800.57,296 800.32,294.66Z" style="fill:rgb(72,107,255);fill-rule:nonzero;"/>
        </g>
        <g transform="matrix(1,0,0,1,-92.22,-58.23)">
            <path d="M671.3,289.24C672.06,274.59 683.71,242.84 685.68,237.58L682,237.58C682,237.58 669.44,274.58 666.89,289.01C666.89,289.01 666.89,289.09 666.89,289.12C666.817,289.52 666.757,289.9 666.71,290.26C666.59,291.12 666.51,291.88 666.48,292.51L666.48,295.71C666.48,295.71 701.83,305.92 725.15,321.92C726.156,319.835 727.456,317.906 729.01,316.19C720.1,308.11 686.32,294.88 671.3,289.24Z" style="fill-opacity:0.1;fill-rule:nonzero;"/>
        </g>
        <g transform="matrix(1,0,0,1,-92.22,-58.23)">
            <path d="M670.38,290.16C671.15,275.51 682.79,243.76 684.76,238.49L681.09,238.49C681.09,238.49 668.53,275.49 665.98,289.93C665.974,289.966 665.974,290.004 665.98,290.04C665.91,290.43 665.84,290.81 665.79,291.17C665.67,292.03 665.59,292.79 665.56,293.42L665.56,296.62C665.56,296.62 700.92,306.84 724.23,322.83C725.244,320.748 726.547,318.819 728.1,317.1C719.19,309 685.4,295.8 670.38,290.16Z" style="fill:rgb(72,107,255);fill-rule:nonzero;"/>
        </g>
        <g transform="matrix(1,0,0,1,-92.22,-58.23)">
            <path d="M799.41,293.74L799.09,291.99C798.93,291.15 798.76,290.21 798.56,289.14C795.73,274.23 788.49,239.22 782.12,234.24L778.31,235.05C780.63,241.28 795.58,281.96 794.31,289.9C769.31,294.9 743.96,311.15 736.31,316.33C738.465,317.598 740.121,319.569 741,321.91C758.368,308.869 778.482,299.955 799.81,295.85C821.138,291.745 799.66,295.1 799.41,293.74Z" style="fill-opacity:0.1;fill-rule:nonzero;"/>
        </g>
        <g transform="matrix(1,0,0,1,-92.22,-58.23)">
            <path d="M800.32,294.66C800.23,294.15 800.12,293.56 800,292.91C799.85,292.07 799.67,291.12 799.47,290.06C796.63,275.14 789.4,240.13 783.03,235.16L779.21,235.96C781.53,242.19 796.48,282.87 795.21,290.81C770.21,295.81 744.87,312.06 737.21,317.25C739.365,318.515 741.021,320.482 741.9,322.82C759.275,309.785 779.391,300.876 800.72,296.77C822.049,292.664 800.57,296 800.32,294.66Z" style="fill:rgb(72,107,255);fill-rule:nonzero;"/>
        </g>
        <g transform="matrix(1,0,0,1,-92.22,-58.23)">
            <path d="M679.07,256.57C679.07,256.57 702.27,271.17 707.69,249.79L712.85,251.17C712.85,251.17 714.55,274.86 677.53,261.34L679.07,256.57Z" style="fill-opacity:0.1;fill-rule:nonzero;"/>
        </g>
        <g transform="matrix(1,0,0,1,-92.22,-58.23)">
            <path d="M679.07,254.74C679.07,254.74 702.27,269.34 707.69,247.96L712.85,249.34C712.85,249.34 714.55,273.03 677.53,259.51L679.07,254.74Z" style="fill:rgb(72,107,255);fill-rule:nonzero;"/>
        </g>
        <g transform="matrix(1,0,0,1,-92.22,-58.23)">
            <path d="M752.07,250.48C752.07,250.48 755.07,267.95 786.86,259.48L785.74,256.18C785.74,256.18 764.03,265.18 756.16,249.55L752.07,250.48Z" style="fill-opacity:0.1;fill-rule:nonzero;"/>
        </g>
        <g transform="matrix(1,0,0,1,-92.22,-58.23)">
            <path d="M752.07,248.65C752.07,248.65 755.07,266.12 786.86,257.65L785.74,254.35C785.74,254.35 764.03,263.35 756.16,247.72L752.07,248.65Z" style="fill:rgb(72,107,255);fill-rule:nonzero;"/>
        </g>
        <g transform="matrix(1,0,0,1,-92.22,-58.23)">
            <path d="M730.91,250.25L730.91,286.71L736.55,286.71C736.55,286.71 744.35,283.9 744.17,267.51C743.99,251.12 742.8,246.71 742.8,246.71L730.91,250.25Z" style="fill-opacity:0.1;fill-rule:nonzero;"/>
        </g>
        <g transform="matrix(1,0,0,1,-92.22,-58.23)">
            <path d="M730,249.34L730,285.8L735.64,285.8C735.64,285.8 743.44,282.99 743.26,266.6C743.08,250.21 741.88,245.8 741.88,245.8L730,249.34Z" style="fill:rgb(72,107,255);fill-rule:nonzero;"/>
        </g>
        <g transform="matrix(1,0,0,1,-92.22,-58.23)">
            <path d="M783,237C780.7,241.28 759.82,248.31 756.13,249.52L755.57,249.7C755.57,249.7 754.25,250.04 752.04,250.5C745.32,251.9 730.34,254.5 719.04,252.22C717.4,251.9 715.7,251.55 713.97,251.22L709.97,250.35C696.97,247.46 683.52,243.68 681.13,240.35C681.13,240.35 681.78,229.48 683.97,229.77C686.16,230.06 710.61,240.35 710.61,240.35L710.96,240.4C711.59,240.48 713.02,240.66 715.03,240.89C722.97,241.76 739.7,243.14 748.7,240.73C749.13,240.61 749.53,240.49 749.92,240.35C750.6,240.12 751.31,239.88 752.04,239.61C763.62,235.51 780.96,228.17 780.96,228.17C780.96,228.17 785.54,232.29 783,237Z" style="fill-opacity:0.1;fill-rule:nonzero;"/>
        </g>
        <g transform="matrix(1,0,0,1,-92.22,-58.23)">
            <path d="M781,227.54C780.08,232.09 754.49,242.37 754.49,242.37L721.34,245.8L696.89,241.92L683.77,234.15L683.86,229.35C683.6,228.541 683.882,227.651 684.56,227.14C688.91,228.46 710.56,237.57 710.56,237.57L710.91,237.62C711.54,237.7 712.97,237.88 714.98,238.11C722.92,238.98 739.65,240.36 748.65,237.95C749.08,237.83 749.48,237.71 749.87,237.57C750.55,237.35 751.26,237.1 751.99,236.83C762.46,233.12 777.65,226.76 780.46,225.58C780.983,226.086 781.19,226.838 781,227.54Z" style="fill-opacity:0.1;fill-rule:nonzero;"/>
        </g>
        <g transform="matrix(1,0,0,1,-92.22,-58.23)">
            <path d="M783,235.16C780.7,239.44 759.82,246.46 756.13,247.67L755.57,247.86C755.57,247.86 754.25,248.19 752.04,248.65C745.32,250.05 730.34,252.65 719.04,250.37C717.4,250.05 715.7,249.7 713.97,249.37L709.97,248.5C696.97,245.61 683.52,241.83 681.13,238.5C681.13,238.5 681.78,227.63 683.97,227.93C686.16,228.23 710.61,238.5 710.61,238.5L710.96,238.55C711.59,238.63 713.02,238.82 715.03,239.04C722.97,239.91 739.7,241.29 748.7,238.88C749.13,238.76 749.53,238.64 749.92,238.5C750.6,238.28 751.31,238.03 752.04,237.76C763.62,233.66 780.96,226.32 780.96,226.32C780.96,226.32 785.54,230.47 783,235.16Z" style="fill:rgb(72,107,255);fill-rule:nonzero;"/>
        </g>
        <circle cx="642.65" cy="188.48" r="3.66" style="fill-opacity:0.1;"/>
        <circle cx="642.65" cy="187.56" r="3.66" style="fill:rgb(72,107,255);"/>
        <g transform="matrix(1,0,0,1,-92.22,-58.23)">
            <path d="M715.9,239L714.9,249.32L710.9,248.45L711.9,238.51C712.46,238.61 713.9,238.8 715.9,239Z" style="fill-opacity:0.1;fill-rule:nonzero;"/>
        </g>
        <g transform="matrix(1,0,0,1,-92.22,-58.23)">
            <path d="M715,239L714,249.32L710,248.45L711,238.51C711.55,238.61 713,238.8 715,239Z" style="fill:rgb(72,107,255);fill-rule:nonzero;"/>
        </g>
        <g transform="matrix(1,0,0,1,-92.22,-58.23)">
            <path d="M755.24,247.67L754.68,247.86C754.68,247.86 753.37,248.19 751.15,248.65L747.74,238.86C748.17,238.74 748.58,238.62 748.97,238.48C749.65,238.26 750.36,238.01 751.09,237.74L755.24,247.67Z" style="fill-opacity:0.1;fill-rule:nonzero;"/>
        </g>
        <g transform="matrix(1,0,0,1,-92.22,-58.23)">
            <path d="M756.16,247.67L755.6,247.86C755.6,247.86 754.28,248.19 752.07,248.65L748.66,238.86C749.09,238.74 749.49,238.62 749.88,238.48C750.56,238.26 751.27,238.01 752,237.74L756.16,247.67Z" style="fill:rgb(72,107,255);fill-rule:nonzero;"/>
        </g>
        <g transform="matrix(1,0,0,1,-92.22,-58.23)">
            <path d="M498.24,221C502.918,221.031 507.506,222.304 511.53,224.69C515.554,227.076 523.71,226.17 530.35,224.69C536.99,223.21 540.35,218.05 541.61,219.52C542.87,220.99 542.9,234.84 542.9,234.84L537.18,250.16L524.26,259.75L503.78,253.85L497,236.52L498.24,221Z" style="fill:rgb(72,107,255);fill-rule:nonzero;"/>
        </g>
        <g transform="matrix(1,0,0,1,-92.22,-58.23)">
            <path d="M542.9,234.86L537.18,250.18L524.26,259.77L503.78,253.87L497,236.52L498.29,221.02L498.59,221.02C503.166,221.136 507.639,222.409 511.59,224.72C515.541,227.031 523.77,226.2 530.41,224.72C536.72,223.32 540.04,218.58 541.41,219.38C541.491,219.418 541.562,219.472 541.62,219.54C542.9,221 542.9,234.86 542.9,234.86Z" style="fill-opacity:0.1;fill-rule:nonzero;"/>
        </g>
        <g transform="matrix(1,0,0,1,-92.22,-58.23)">
            <path d="M542.9,234.86L537.18,250.18L524.26,259.77L503.78,253.87L497,236.52L498.29,221.02L498.59,221.02C499.73,225.91 504.59,241.35 520.07,242.44C535.99,243.55 540.51,224.61 541.45,219.39C541.531,219.428 541.602,219.482 541.66,219.55C542.9,221 542.9,234.86 542.9,234.86Z" style="fill-opacity:0.1;fill-rule:nonzero;"/>
        </g>
        <g transform="matrix(1,0,0,1,-92.22,-58.23)">
            <path d="M498.24,221C498.24,221 501.56,242.59 520.02,243.88C538.48,245.17 541.61,219.52 541.61,219.52C541.61,219.52 568.37,228.29 574.61,243.93C580.85,259.57 585.5,272.12 585.5,272.12C585.5,272.12 583.5,275.62 581.25,275.99C579,276.36 563.72,286.88 563.72,286.88C563.72,286.88 563.54,316.78 565.2,318.62C566.86,320.46 566.31,328.4 561.32,328.03C556.33,327.66 521.83,319.91 492.32,326.37C492.32,326.37 479.96,330.8 480.32,323.6C480.68,316.4 481.24,288.17 481.24,288.17C481.24,288.17 462.6,280.05 461.5,280.05C460.4,280.05 457.62,278.59 460.57,273.78C463.52,268.97 467.22,252.56 467.22,252.56C467.22,252.56 474.62,229 498.24,221Z" style="fill:rgb(72,107,255);fill-rule:nonzero;"/>
        </g>
        <g transform="matrix(1,0,0,1,-92.22,-58.23)">
            <path d="M555.63,259.77C555.63,259.77 561.17,263.83 559.88,266.97C558.59,270.11 555.63,259.77 555.63,259.77Z" style="fill-opacity:0.1;fill-rule:nonzero;"/>
        </g>
        <g transform="matrix(1,0,0,1,-92.22,-58.23)">
            <path d="M563.75,263.67C563.234,265.47 563.234,267.38 563.75,269.18" style="fill-opacity:0.1;fill-rule:nonzero;"/>
        </g>
        <g transform="matrix(1,0,0,1,-92.22,-58.23)">
            <path d="M567.44,273.8C567.44,273.8 568.18,278.8 565.97,279.33" style="fill-opacity:0.1;fill-rule:nonzero;"/>
        </g>
        <g transform="matrix(1,0,0,1,-92.22,-58.23)">
            <path d="M492.15,258.48C492.15,258.48 481.82,267.48 485.32,271.03" style="fill-opacity:0.1;fill-rule:nonzero;"/>
        </g>
        <g transform="matrix(1,0,0,1,-92.22,-58.23)">
            <path d="M485.69,280.26C485.69,280.26 485.52,289.67 488.37,290.41" style="fill-opacity:0.1;fill-rule:nonzero;"/>
        </g>
        <g transform="matrix(1,0,0,1,-92.22,-58.23)">
            <path d="M515.4,311.81C515.4,311.81 522.4,307.02 524.26,307.2" style="fill-opacity:0.1;fill-rule:nonzero;"/>
        </g>
        <g transform="matrix(1,0,0,1,-92.22,-58.23)">
            <path d="M522.4,316.8C522.4,316.8 529.98,311.44 532.01,311.8" style="fill-opacity:0.1;fill-rule:nonzero;"/>
        </g>
        <g transform="matrix(1,0,0,1,-92.22,-58.23)">
            <path d="M687,402.65C687,402.65 747.38,405.51 777.4,403.75L776.74,411.67L723.62,418.67L707.9,413.83L687,402.65Z" style="fill:rgb(72,107,255);fill-rule:nonzero;"/>
        </g>
        <g transform="matrix(1,0,0,1,-92.22,-58.23)">
            <path d="M777.44,403.75L776.78,411.67L723.67,418.67L707.94,413.83L687,402.65C687,402.65 688.24,402.72 690.45,402.81C703.55,403.38 750.72,405.22 776.62,403.81L777.44,403.75Z" style="fill-opacity:0.1;fill-rule:nonzero;"/>
        </g>
        <g transform="matrix(1,0,0,1,-92.22,-58.23)">
            <path d="M798.34,516.37C786.68,523.37 746.21,516.59 746.21,516.59L734.99,476.59L722.45,517.28C704.64,523.66 667.9,514.42 667.9,514.42L682.2,426.42L684.67,414.29L687,402.65L709.66,409.47C709.66,409.47 716.47,414.09 744.85,412.77C773.23,411.45 777.4,403.77 777.4,403.77C778.65,404.13 779.84,408.54 781.04,414.02C782.78,422.02 784.55,432.28 786.64,435.67C790.2,441.37 798.34,516.37 798.34,516.37Z" style="fill:rgb(72,107,255);fill-rule:nonzero;"/>
        </g>
        <g transform="matrix(1,0,0,1,-92.22,-58.23)">
            <path d="M781.08,414.88C755.78,428.77 734,428.39 734,428.39C728.61,429.05 684.67,415.16 684.67,415.16L687,403.53L709.66,410.35C709.66,410.35 716.47,414.97 744.85,413.65C773.23,412.33 777.4,404.65 777.4,404.65C778.69,405 779.88,409.4 781.08,414.88Z" style="fill-opacity:0.1;fill-rule:nonzero;"/>
        </g>
        <g transform="matrix(1,0,0,1,-92.22,-58.23)">
            <path d="M777.44,403.75L776.78,411.67L723.67,418.67L707.94,413.83L687,402.65C687,402.65 688.24,402.72 690.45,402.81L709.65,408.59C709.65,408.59 716.46,413.21 744.84,411.89C767.13,410.89 774.49,405.89 776.62,403.8L777.44,403.75Z" style="fill-opacity:0.1;fill-rule:nonzero;"/>
        </g>
        <g transform="matrix(1,0,0,1,-92.22,-58.23)">
            <path d="M781.08,414C755.78,427.89 734,427.51 734,427.51C728.61,428.17 684.67,414.28 684.67,414.28L687,402.65L709.66,409.47C709.66,409.47 716.47,414.09 744.85,412.77C773.23,411.45 777.4,403.77 777.4,403.77C778.69,404.11 779.88,408.52 781.08,414Z" style="fill:rgb(72,107,255);fill-rule:nonzero;"/>
        </g>
        <circle cx="646.07" cy="364.87" r="2.31" style="fill-opacity:0.1;"/>
        <circle cx="646.07" cy="363.99" r="2.31" style="fill:none;stroke:rgb(72,107,255);stroke-width:1px;"/>
        <g transform="matrix(1,0,0,1,-92.22,-58.23)">
            <path d="M679.23,463.58C679.23,463.58 683.3,475.68 686.16,475.46C689.02,475.24 679.23,463.58 679.23,463.58Z" style="fill-opacity:0.1;fill-rule:nonzero;"/>
        </g>
        <g transform="matrix(1,0,0,1,-92.22,-58.23)">
            <path d="M676.59,475.46C676.59,475.46 679.12,482.72 681.76,483.93" style="fill-opacity:0.1;fill-rule:nonzero;"/>
        </g>
        <g transform="matrix(1,0,0,1,-92.22,-58.23)">
            <path d="M676.59,483.05C676.59,483.05 680.59,488.11 682.96,489.32" style="fill-opacity:0.1;fill-rule:nonzero;"/>
        </g>
        <g transform="matrix(1,0,0,1,-92.22,-58.23)">
            <path d="M784,437.3C784,437.3 787.74,442.91 784,444.12" style="fill-opacity:0.1;fill-rule:nonzero;"/>
        </g>
        <g transform="matrix(1,0,0,1,-92.22,-58.23)">
            <path d="M785.7,446.42C781.36,441.27 784.04,453.42 784.04,453.42C784.04,453.42 786.81,447.74 785.7,446.42Z" style="fill-opacity:0.1;fill-rule:nonzero;"/>
        </g>
        <g transform="matrix(1,0,0,1,-92.22,-58.23)">
            <path d="M787.89,452.69C787.89,452.69 781.29,462.48 782.61,463.58" style="fill-opacity:0.1;fill-rule:nonzero;"/>
        </g>
        <g transform="matrix(1,0,0,1,-92.22,-58.23)">
            <path d="M700.58,437.51C692.49,437.51 684.05,433.85 683.58,433.63L683.94,432.82C684.1,432.9 700.25,439.91 708.99,434.65C712.29,432.65 714.14,429.13 714.5,424.15L715.38,424.22C715,429.5 713,433.22 709.44,435.4C706.734,436.896 703.67,437.626 700.58,437.51Z" style="fill-opacity:0.1;fill-rule:nonzero;"/>
        </g>
        <g transform="matrix(1,0,0,1,-92.22,-58.23)">
            <path d="M700.58,436.63C692.49,436.63 684.05,432.97 683.58,432.75L683.94,431.95C684.1,432.02 700.25,439.03 708.99,433.77C712.29,431.77 714.14,428.25 714.5,423.27L715.38,423.34C715,428.62 713,432.34 709.44,434.52C706.734,436.016 703.67,436.746 700.58,436.63Z" style="fill:rgb(72,107,255);fill-rule:nonzero;"/>
        </g>
        <g transform="matrix(1,0,0,1,-92.22,-58.23)">
            <path d="M767,438.17C764.928,438.2 762.877,437.758 761,436.88C754.44,433.72 753.38,425.98 753.33,425.65L754.21,425.54C754.21,425.62 755.26,433.15 761.39,436.09C766.85,438.72 774.6,437.09 784.39,431.09L784.84,431.84C777.87,436.06 771.9,438.17 767,438.17Z" style="fill-opacity:0.1;fill-rule:nonzero;"/>
        </g>
        <g transform="matrix(1,0,0,1,-92.22,-58.23)">
            <path d="M767,437.29C764.928,437.32 762.877,436.878 761,436C754.44,432.84 753.38,425.1 753.33,424.77L754.21,424.66C754.21,424.74 755.26,432.27 761.39,435.21C766.85,437.84 774.6,436.21 784.39,430.21L784.84,430.96C777.87,435.18 771.9,437.29 767,437.29Z" style="fill:rgb(72,107,255);fill-rule:nonzero;"/>
        </g>
        <g transform="matrix(1,0,0,1,-92.22,-58.23)">
            <path d="M503.34,404C503.34,404 514.69,419.85 522.4,418.31C530.11,416.77 530.87,415.08 537.72,404L543.34,416.93L536.72,432.93L528.88,443.08L512.26,440.47L506.88,422.31L503.34,404Z" style="fill:rgb(72,107,255);fill-rule:nonzero;"/>
        </g>
        <g transform="matrix(1,0,0,1,-92.22,-58.23)">
            <path d="M543.34,416.92L536.72,432.92L528.88,443.07L512.26,440.46L506.88,422.3L503.34,404C503.34,404 504.34,405.38 505.9,407.28C509.71,411.83 516.96,419.39 522.4,418.28C530,416.76 530.85,415.09 537.45,404.42L537.72,403.97L543.34,416.92Z" style="fill-opacity:0.1;fill-rule:nonzero;"/>
        </g>
        <g transform="matrix(1,0,0,1,-92.22,-58.23)">
            <path d="M543.34,416.92L536.72,432.92L528.88,443.07L512.26,440.46L506.88,422.3L503.34,404C503.34,404 504.34,405.38 505.9,407.28C508.38,415.28 513.71,428.11 522.4,428C532.21,427.89 536.17,411.64 537.45,404.45L537.72,404L543.34,416.92Z" style="fill-opacity:0.1;fill-rule:nonzero;"/>
        </g>
        <g transform="matrix(1,0,0,1,-92.22,-58.23)">
            <path d="M497.34,403.53C497.34,403.53 493.49,403.07 495.49,407.84C497.49,412.61 501.18,428.3 499.34,431.53C497.5,434.76 498.42,443.53 490.42,445.23L492.72,454.3C492.72,454.3 493.18,474.3 492.26,477.23C491.34,480.16 491.18,496.3 491.49,497.99C491.8,499.68 491.65,510.76 490.42,511.23C489.19,511.7 488.42,517.07 492.42,517.99C496.42,518.91 513.49,519.38 516.57,520.3C519.65,521.22 541.49,520.3 541.49,520.3C541.49,520.3 550.72,519.07 553.03,518.3C555.34,517.53 555.8,515.69 555.03,512.15C554.26,508.61 550.72,482.92 551.49,479.69C552.26,476.46 552.42,444.92 552.42,444.92C552.42,444.92 546.42,442.92 546.42,437.07C546.42,431.22 544.11,415.53 548.88,405.69C548.88,405.69 545.03,403.05 544.42,403.52C543.81,403.99 538,402.3 538,402.3C538,402.3 535,429.07 522.45,429.22C509.9,429.37 504.31,402.3 504.31,402.3C504.31,402.3 504.42,399.84 497.34,403.53Z" style="fill:rgb(72,107,255);fill-rule:nonzero;"/>
        </g>
        <g transform="matrix(1,0,0,1,-92.22,-58.23)">
            <path d="M515.49,489.38C515.49,489.38 518.08,495.69 522.4,496.61C526.72,497.53 515.49,489.38 515.49,489.38Z" style="fill-opacity:0.1;fill-rule:nonzero;"/>
        </g>
        <g transform="matrix(1,0,0,1,-92.22,-58.23)">
            <path d="M511.49,494.3C511.49,494.3 519.85,501.07 519.49,502.46" style="fill-opacity:0.1;fill-rule:nonzero;"/>
        </g>
        <g transform="matrix(1,0,0,1,-92.22,-58.23)">
            <path d="M494.72,454.3C494.72,454.3 501.34,458.76 501.34,461.99" style="fill-opacity:0.1;fill-rule:nonzero;"/>
        </g>
        <g transform="matrix(1,0,0,1,-92.22,-58.23)">
            <path d="M499.18,468.3C499.18,468.3 497.34,461.84 496.11,460.46" style="fill-opacity:0.1;fill-rule:nonzero;"/>
        </g>
        <g transform="matrix(1,0,0,1,-92.22,-58.23)">
            <path d="M496.11,470.76C496.11,470.76 498.88,476.3 499.18,477.84" style="fill-opacity:0.1;fill-rule:nonzero;"/>
        </g>
        <g transform="matrix(1,0,0,1,-92.22,-58.23)">
            <path d="M549.8,459.53C549.8,459.53 541.19,462.15 541.95,465.38" style="fill-opacity:0.1;fill-rule:nonzero;"/>
        </g>
        <g transform="matrix(1,0,0,1,-92.22,-58.23)">
            <path d="M541.91,489.38C541.91,489.38 553.19,476.3 549.8,476.61C546.41,476.92 541.91,489.38 541.91,489.38Z" style="fill-opacity:0.1;fill-rule:nonzero;"/>
        </g>
        <g transform="matrix(1,0,0,1,-92.22,-58.23)">
            <path d="M546.41,437.07C546.41,434.37 545.92,429.57 545.86,424.22C545.8,430.36 546.41,436.04 546.41,439.07C546.41,444.79 552.14,446.82 552.41,446.91C552.41,445.66 552.41,444.91 552.41,444.91C552.41,444.91 546.41,442.92 546.41,437.07Z" style="fill-rule:nonzero;"/>
        </g>
        <g transform="matrix(1,0,0,1,-92.22,-58.23)">
            <path d="M555,514.15C555.117,514.675 555.208,515.206 555.27,515.74C555.398,514.537 555.306,513.32 555,512.15C554.34,509.15 551.66,489.89 551.38,482.37C551.08,487.51 554.3,510.79 555,514.15Z" style="fill-rule:nonzero;"/>
        </g>
        <g transform="matrix(1,0,0,1,-92.22,-58.23)">
            <path d="M491.35,494.2C491.35,488.71 491.66,481.14 492.26,479.2C492.75,477.64 492.85,471.26 492.84,465.62C492.84,470.68 492.69,475.82 492.26,477.2C491.58,479.38 491.32,488.76 491.35,494.2Z" style="fill-rule:nonzero;"/>
        </g>
        <g transform="matrix(1,0,0,1,-92.22,-58.23)">
            <path d="M497.34,405.53C504.41,401.84 504.26,404.3 504.26,404.3C504.26,404.3 509.8,431.38 522.4,431.22C535,431.06 538,404.3 538,404.3C538,404.3 543.85,405.99 544.46,405.52C545.07,405.05 547.12,406.52 548.25,407.24C548.46,406.71 548.68,406.19 548.93,405.69C548.93,405.69 545.08,403.05 544.46,403.52C543.84,403.99 538,402.3 538,402.3C538,402.3 535,429.07 522.45,429.22C509.9,429.37 504.31,402.3 504.31,402.3C504.31,402.3 504.46,399.84 497.39,403.53C497.39,403.53 494.26,403.17 495.13,406.62C495.63,405.33 497.34,405.53 497.34,405.53Z" style="fill-rule:nonzero;"/>
        </g>
        <g transform="matrix(1,0,0,1,-92.22,-58.23)">
            <path d="M490.41,513.23C491.41,512.86 491.68,506.01 491.62,502.23C491.57,506.03 491.22,510.92 490.41,511.23C489.6,511.54 489.21,513.23 489.52,514.86C489.68,514 490,513.37 490.41,513.23Z" style="fill-rule:nonzero;"/>
        </g>
        <g transform="matrix(1,0,0,1,-92.22,-58.23)">
            <path d="M499.34,433.53C499.829,432.219 499.99,430.808 499.81,429.42C499.801,430.148 499.641,430.867 499.34,431.53C497.49,434.76 498.41,443.53 490.41,445.23L490.89,447.11C498.37,445.17 497.53,436.7 499.34,433.53Z" style="fill-rule:nonzero;"/>
        </g>
        <g transform="matrix(1,0,0,1,-92.22,-58.23)">
            <path d="M543.78,591.64C540,598.52 501.63,591.64 501.63,591.64L501.73,590.95L502.49,585.62L542.92,585.62L543.69,590.94L543.78,591.64Z" style="fill:rgb(72,107,255);fill-rule:nonzero;"/>
        </g>
        <g transform="matrix(1,0,0,1,-92.22,-58.23)">
            <path d="M543.78,591.64C540,598.52 501.63,591.64 501.63,591.64L501.73,590.95C503.57,590.95 531.33,590.29 543.73,590.95L543.78,591.64Z" style="fill-opacity:0.1;fill-rule:nonzero;"/>
        </g>
        <g transform="matrix(1,0,0,1,-92.22,-58.23)">
            <path d="M501.63,591.64C501.63,591.64 494.75,593.36 484.08,622.26C473.41,651.16 469.63,688.5 469.63,688.5C469.63,688.5 463.63,698.66 489.24,699.34C489.24,699.34 487.18,706.05 501.63,705.02C516.08,703.99 514,704 514,704C514,704 523.29,698.15 527.42,699.18C531.55,700.21 534.13,700.56 538.6,704.34C543.07,708.12 557.36,706.58 557.53,703.66C557.645,702.226 557.645,700.784 557.53,699.35C557.415,697.916 579.38,700.73 575.25,684.9C571.12,669.07 567.68,643.09 567.68,643.09C567.68,643.09 556.5,592.34 543.76,591.65C531.02,590.96 501.63,591.64 501.63,591.64Z" style="fill:rgb(72,107,255);fill-rule:nonzero;"/>
        </g>
        <g transform="matrix(0.0918492,-0.995773,0.995773,0.0918492,-296.91,1028.29)">
            <rect x="449.23" y="655.13" width="88.12" height="0.69" style="fill-opacity:0.1;"/>
        </g>
        <g transform="matrix(0.00383971,-0.999993,0.999993,0.00383971,-237.83,1111.17)">
            <rect x="467.99" y="657.45" width="92.39" height="0.69" style="fill-opacity:0.1;"/>
        </g>
        <g transform="matrix(0.999309,-0.037167,0.037167,0.999309,-116.25,-37.87)">
            <rect x="536.56" y="611.56" width="0.69" height="92.8" style="fill-opacity:0.1;"/>
        </g>
        <g transform="matrix(1,0,0,1,-92.22,-58.23)">
            <path d="M557.2,699.35C556,646.5 547,610.32 546.89,610L547.56,609.83C547.65,610.19 556.7,646.44 557.89,699.38L557.2,699.35Z" style="fill-opacity:0.1;fill-rule:nonzero;"/>
        </g>
        <g transform="matrix(1,0,0,1,-92.22,-58.23)">
            <path d="M502.83,596.8C502.83,596.8 501.63,597.49 502.83,600.8" style="fill-opacity:0.1;fill-rule:nonzero;"/>
        </g>
        <g transform="matrix(1,0,0,1,-92.22,-58.23)">
            <path d="M506.28,596.8C506.28,596.8 503.01,598.86 506.28,602.31" style="fill-opacity:0.1;fill-rule:nonzero;"/>
        </g>
        <g transform="matrix(1,0,0,1,-92.22,-58.23)">
            <path d="M536.9,596.8C536.9,596.8 541.37,601.1 540.34,602.31" style="fill-opacity:0.1;fill-rule:nonzero;"/>
        </g>
        <g transform="matrix(1,0,0,1,-92.22,-58.23)">
            <path d="M540.5,595.77C540.5,595.77 541.2,600.93 543.78,602.31" style="fill-opacity:0.1;fill-rule:nonzero;"/>
        </g>
        <g transform="matrix(1,0,0,1,-92.22,-58.23)">
            <path d="M723.12,587.52C723.12,587.52 740,580.8 747.3,589C754.6,597.2 742.3,607.18 742.3,607.18L737.14,617.48L725,616.15L722.14,601.91L723.12,587.52Z" style="fill:rgb(72,107,255);fill-rule:nonzero;"/>
        </g>
        <g transform="matrix(1,0,0,1,-92.22,-58.23)">
            <path d="M742.3,607.13L737.14,617.43L725,616.14L722.14,601.91L723.14,587.52L723.41,587.42C725.55,586.63 740,581.59 746.91,588.53C747.054,588.662 747.191,588.803 747.32,588.95C754.6,597.11 742.3,607.13 742.3,607.13Z" style="fill-opacity:0.1;fill-rule:nonzero;"/>
        </g>
        <g transform="matrix(1,0,0,1,-92.22,-58.23)">
            <path d="M742.3,607.13L737.14,617.43L725,616.14L722.14,601.91L723.14,587.52L723.41,587.42C725.5,598.87 731.08,603.7 732.02,604.42L732.16,604.52L735.59,604.24C742.26,600.56 745.78,591.81 746.91,588.5C747.054,588.632 747.191,588.773 747.32,588.92C754.6,597.11 742.3,607.13 742.3,607.13Z" style="fill-opacity:0.1;fill-rule:nonzero;"/>
        </g>
        <g transform="matrix(1,0,0,1,-92.22,-58.23)">
            <path d="M771.78,646.35C771.78,646.35 768.06,693.73 769.07,699.45C770.08,705.17 766.92,705.6 766.92,705.6C766.92,705.6 753.46,708.6 750.92,706.6C748.38,704.6 744.05,704.21 744.05,704.21C744.05,704.21 734.05,706.5 729.59,704.79C725.13,703.08 717.71,703.79 717.71,703.79C717.71,703.79 711.99,707.23 710.41,706.51C708.83,705.79 706.83,706.08 702.25,704.8C697.67,703.52 695.09,702.36 697.52,694.49C699.95,686.62 697.82,661.71 697.67,658.7C697.52,655.69 696.1,648.4 694.09,639.7C692.08,631 697.52,632.83 697.52,632.83C710.27,626.25 704.97,613.36 702.97,607.64C700.97,601.92 704.11,601.64 705.68,601.64C707.25,601.64 713.27,596.49 713.27,596.49L715.71,594.3L723.15,587.62C725,600.13 731,605.38 732,606.16L732.14,606.27L735.57,605.98C743.87,601.41 747.3,588.98 747.3,588.98C748.3,590.68 750.53,592.62 753.02,594.42C756.279,596.725 759.675,598.829 763.19,600.72C769.19,604.3 764.77,607.88 764.77,607.88C757.47,632.78 767.77,633.88 767.77,633.88C775.36,635 771.78,646.35 771.78,646.35Z" style="fill:rgb(72,107,255);fill-rule:nonzero;"/>
        </g>
        <g transform="matrix(1,0,0,1,-92.22,-58.23)">
            <path d="M715.53,601.69C715.53,601.69 713.38,602.84 713.38,604.12" style="fill-opacity:0.1;fill-rule:nonzero;"/>
        </g>
        <g transform="matrix(1,0,0,1,-92.22,-58.23)">
            <path d="M716.82,604.12C716.82,604.12 713.96,607.12 714.46,607.99" style="fill-opacity:0.1;fill-rule:nonzero;"/>
        </g>
        <g transform="matrix(1,0,0,1,-92.22,-58.23)">
            <path d="M716.82,608C716.82,608 714.67,610.29 715.53,611.58" style="fill-opacity:0.1;fill-rule:nonzero;"/>
        </g>
        <g transform="matrix(1,0,0,1,-92.22,-58.23)">
            <path d="M731.14,607.88L722.14,616.57C721.81,606.91 717.14,599.18 714.84,595.92L722.28,589.24C724.1,601.85 730.15,607.1 731.14,607.88Z" style="fill-opacity:0.1;fill-rule:nonzero;"/>
        </g>
        <g transform="matrix(1,0,0,1,-92.22,-58.23)">
            <path d="M732,606.16L723,614.86C722.68,605.19 718,597.47 715.71,594.2L723.15,587.52C725,600.13 731,605.38 732,606.16Z" style="fill:rgb(72,107,255);fill-rule:nonzero;"/>
        </g>
        <g transform="matrix(1,0,0,1,-92.22,-58.23)">
            <path d="M753.88,596.11C750.28,601.73 743.59,616.57 743.59,616.57L736.43,607.7C744.73,603.12 748.16,590.7 748.16,590.7C749.16,592.36 751.39,594.3 753.88,596.11Z" style="fill-opacity:0.1;fill-rule:nonzero;"/>
        </g>
        <g transform="matrix(1,0,0,1,-92.22,-58.23)">
            <path d="M753,594.39C749.41,600.02 742.71,614.86 742.71,614.86L735.57,606C743.87,601.43 747.3,589 747.3,589C748.3,590.65 750.53,592.59 753,594.39Z" style="fill:rgb(72,107,255);fill-rule:nonzero;"/>
        </g>
        <g transform="matrix(1,0,0,1,-92.22,-58.23)">
            <path d="M747.74,686.14C747.74,686.14 746.21,699.14 745.33,699.88" style="fill-opacity:0.1;fill-rule:nonzero;"/>
        </g>
        <g transform="matrix(1,0,0,1,-92.22,-58.23)">
            <path d="M760.33,688.43C760.33,688.43 762.05,697.73 761.33,699.88" style="fill-opacity:0.1;fill-rule:nonzero;"/>
        </g>
        <g transform="matrix(1,0,0,1,-92.22,-58.23)">
            <path d="M723.69,689C723.69,689 722.12,697.73 723.69,698.73" style="fill-opacity:0.1;fill-rule:nonzero;"/>
        </g>
        <g transform="matrix(1,0,0,1,-92.22,-58.23)">
            <path d="M714.4,687.71C714.4,687.71 713.1,698.02 713.4,699.88" style="fill-opacity:0.1;fill-rule:nonzero;"/>
        </g>
        <g transform="matrix(1,0,0,1,-92.22,-58.23)">
            <path d="M762.48,637.47C762.48,637.47 758.48,640.62 758.76,641.47" style="fill-opacity:0.1;fill-rule:nonzero;"/>
        </g>
        <g transform="matrix(1,0,0,1,-92.22,-58.23)">
            <path d="M765.34,639.48C765.34,639.48 757.68,645.92 761.51,645.2C765.34,644.48 765.34,639.48 765.34,639.48Z" style="fill-opacity:0.1;fill-rule:nonzero;"/>
        </g>
        <g transform="matrix(1,0,0,1,-92.22,-58.23)">
            <path d="M841.62,340.23C841.62,340.243 841.62,340.257 841.62,340.27C841.62,349.744 833.824,357.54 824.35,357.54C814.876,357.54 807.08,349.744 807.08,340.27C807.08,330.796 814.876,323 824.35,323C833.809,323 841.598,330.771 841.62,340.23ZM822.35,349.37L835.17,336.56C835.595,336.127 835.595,335.423 835.17,334.99L833.59,333.41C833.383,333.199 833.1,333.081 832.805,333.081C832.51,333.081 832.227,333.199 832.02,333.41L821.57,343.86L816.69,339C816.254,338.573 815.546,338.573 815.11,339L813.54,340.58C813.329,340.787 813.211,341.07 813.211,341.365C813.211,341.66 813.329,341.943 813.54,342.15L820.78,349.39C820.987,349.601 821.27,349.719 821.565,349.719C821.86,349.719 822.143,349.601 822.35,349.39L822.35,349.37Z" style="fill:rgb(58,204,108);fill-rule:nonzero;"/>
        </g>
        <g transform="matrix(1,0,0,1,-92.22,-58.23)">
            <path d="M632.41,529.77C632.41,539.244 624.614,547.04 615.14,547.04C605.666,547.04 597.87,539.244 597.87,529.77C597.87,520.296 605.666,512.5 615.14,512.5C624.614,512.5 632.41,520.296 632.41,529.77ZM613.14,538.91L626,526.1C626.211,525.892 626.33,525.607 626.33,525.31C626.33,525.013 626.211,524.728 626,524.52L624.38,523C624.172,522.789 623.887,522.67 623.59,522.67C623.293,522.67 623.008,522.789 622.8,523L612.35,533.4L607.47,528.52C607.263,528.309 606.98,528.191 606.685,528.191C606.39,528.191 606.107,528.309 605.9,528.52L604.32,530.09C603.893,530.526 603.893,531.234 604.32,531.67L611.56,538.91C611.768,539.121 612.053,539.24 612.35,539.24C612.647,539.24 612.932,539.121 613.14,538.91Z" style="fill:rgb(58,204,108);fill-rule:nonzero;"/>
        </g>
        <g transform="matrix(1,0,0,1,-92.22,-58.23)">
            <path d="M632.41,718.43C632.41,727.904 624.614,735.7 615.14,735.7C605.666,735.7 597.87,727.904 597.87,718.43C597.87,708.956 605.666,701.16 615.14,701.16C624.614,701.16 632.41,708.956 632.41,718.43ZM613.14,727.57L626,714.76C626.211,714.552 626.33,714.267 626.33,713.97C626.33,713.673 626.211,713.388 626,713.18L624.43,711.61C624.222,711.399 623.937,711.28 623.64,711.28C623.343,711.28 623.058,711.399 622.85,711.61L612.4,722.06L607.52,717.18C607.313,716.969 607.03,716.851 606.735,716.851C606.44,716.851 606.157,716.969 605.95,717.18L604.37,718.75C603.943,719.186 603.943,719.894 604.37,720.33L611.61,727.57C611.818,727.781 612.103,727.9 612.4,727.9C612.697,727.9 612.982,727.781 613.19,727.57L613.14,727.57Z" style="fill:rgb(58,204,108);fill-rule:nonzero;"/>
        </g>
    </g>
</svg>
