<?xml version="1.0" encoding="UTF-8" standalone="no"?>
<!DOCTYPE svg PUBLIC "-//W3C//DTD SVG 1.1//EN" "http://www.w3.org/Graphics/SVG/1.1/DTD/svg11.dtd">
<svg width="100%" height="100%" viewBox="0 0 1010 840" version="1.1" xmlns="http://www.w3.org/2000/svg" xmlns:xlink="http://www.w3.org/1999/xlink" xml:space="preserve" xmlns:serif="http://www.serif.com/" style="fill-rule:evenodd;clip-rule:evenodd;stroke-linejoin:round;stroke-miterlimit:1.41421;">
    <g transform="matrix(1.29802,0,0,1.29802,-58.0346,-169.955)">
        <path d="M651.66,291.584C651.66,290.611 650.869,289.82 649.896,289.82L644.564,289.82C643.591,289.82 642.8,290.611 642.8,291.584L642.8,361.076C642.8,362.049 643.591,362.84 644.564,362.84L649.896,362.84C650.869,362.84 651.66,362.049 651.66,361.076L651.66,291.584Z" style="fill:rgb(58,55,104);"/>
    </g>
    <g transform="matrix(1.29802,0,0,1.29802,-58.0346,-169.955)">
        <path d="M353.34,234.374C353.34,233.401 352.549,232.61 351.576,232.61L350.134,232.61C349.161,232.61 348.37,233.401 348.37,234.374L348.37,254.886C348.37,255.859 349.161,256.65 350.134,256.65L351.576,256.65C352.549,256.65 353.34,255.859 353.34,254.886L353.34,234.374Z" style="fill:rgb(58,55,104);"/>
    </g>
    <g transform="matrix(1.29802,0,0,1.29802,-58.0346,-169.955)">
        <path d="M353.79,278.394C353.79,277.421 352.999,276.63 352.026,276.63L349.954,276.63C348.981,276.63 348.19,277.421 348.19,278.394L348.19,316.706C348.19,317.679 348.981,318.47 349.954,318.47L352.026,318.47C352.999,318.47 353.79,317.679 353.79,316.706L353.79,278.394Z" style="fill:rgb(58,55,104);"/>
    </g>
    <g transform="matrix(1.29802,0,0,1.29802,-58.0346,-169.955)">
        <path d="M353.61,334.874C353.61,333.901 352.819,333.11 351.846,333.11L350.044,333.11C349.071,333.11 348.28,333.901 348.28,334.874L348.28,373.546C348.28,374.519 349.071,375.31 350.044,375.31L351.846,375.31C352.819,375.31 353.61,374.519 353.61,373.546L353.61,334.874Z" style="fill:rgb(58,55,104);"/>
    </g>
    <g transform="matrix(1.29802,0,0,1.29802,-58.0346,-169.955)">
        <path d="M647.58,183.208C647.58,166.63 634.12,153.17 617.542,153.17L381.218,153.17C364.64,153.17 351.18,166.63 351.18,183.208L351.18,725.522C351.18,742.1 364.64,755.56 381.218,755.56L617.542,755.56C634.12,755.56 647.58,742.1 647.58,725.522L647.58,183.208Z" style="fill:rgb(58,55,104);"/>
    </g>
    <g transform="matrix(1.29802,0,0,1.29802,-181.645,-209.129)">
        <path d="M701,199L667,199L667,203.09C667,213.722 658.252,222.47 647.62,222.47C647.617,222.47 647.613,222.47 647.61,222.47L539.48,222.47C539.477,222.47 539.473,222.47 539.47,222.47C528.838,222.47 520.09,213.722 520.09,203.09C520.09,203.09 520.09,203.09 520.09,203.09L520.09,199L488.26,199C475.346,199 464.72,209.626 464.72,222.54L464.72,746.51C464.72,759.424 475.346,770.05 488.26,770.05L701,770.05C713.914,770.05 724.54,759.424 724.54,746.51L724.54,222.58C724.54,222.567 724.54,222.553 724.54,222.54C724.54,209.626 713.914,199 701,199C701,199 701,199 701,199Z" style="fill:rgb(72,107,255);fill-rule:nonzero;"/>
    </g>
    <g transform="matrix(1.29802,0,0,1.29802,-58.0346,-169.955)">
        <path d="M512.18,174.141C512.18,172.496 510.844,171.16 509.199,171.16L473.771,171.16C472.126,171.16 470.79,172.496 470.79,174.141L470.79,176.579C470.79,178.224 472.126,179.56 473.771,179.56L509.199,179.56C510.844,179.56 512.18,178.224 512.18,176.579L512.18,174.141Z" style="fill:rgb(230,232,236);"/>
    </g>
    <g transform="matrix(1.29802,0,0,1.29802,-58.0346,-169.955)">
        <circle cx="523.21" cy="175.36" r="4.77" style="fill:rgb(230,232,236);"/>
    </g>
    <g transform="matrix(1.29802,0,0,1.29802,-181.645,-209.129)">
        <path d="M377.46,474.88C377.752,475.162 378.197,475.219 378.55,475.02C378.182,475.026 377.815,474.978 377.46,474.88Z" style="fill:url(#_Linear1);fill-rule:nonzero;"/>
    </g>
    <g transform="matrix(1.29802,0,0,1.29802,-181.645,-209.129)">
        <path d="M497.29,275.88C495.18,275.26 492.18,274.25 488.55,272.98C492.317,268.06 495.07,262.441 496.65,256.45L496.34,256.57C496.44,256.2 496.55,255.84 496.65,255.47C489.71,258.33 482.02,253.47 477.13,247.26C472.24,241.05 468.91,233.32 463.56,227.59C461.326,225.32 458.922,223.224 456.37,221.32C454.79,220.08 453.08,218.79 451.15,218.73C448.03,218.64 445.58,221.73 442.57,222.66C440.585,223.114 438.516,223.038 436.57,222.44C428.8,220.63 421.31,217.3 413.42,216.44C409.179,215.906 404.872,216.397 400.86,217.87C396.86,219.41 395.06,222.46 391.86,224.87C388.39,227.49 381.48,227.43 377.39,227.87C372.432,228.44 367.439,228.65 362.45,228.5C359.581,228.241 356.691,228.348 353.85,228.82C347.91,230.14 343.14,234.92 338.69,239.52C337.47,240.57 336.595,241.965 336.18,243.52C336.125,243.958 336.125,244.402 336.18,244.84C336.134,246.036 336.338,247.228 336.78,248.34C338.124,252.474 340.043,256.4 342.48,260C344.3,262.64 346.41,265.12 347.48,268.24C347.971,269.776 348.231,271.377 348.25,272.99C348.194,274.704 348.017,276.411 347.72,278.1C346.934,282.756 345.643,287.313 343.87,291.69C342.93,294.01 341.87,296.32 341.62,298.86C341.59,299.366 341.59,299.874 341.62,300.38C341.32,308.21 349.13,313.86 350.62,321.65C350.738,322.294 350.812,322.946 350.84,323.6C350.67,328.46 347.94,333.21 343.92,335.09C344.27,335.23 344.63,335.35 344.99,335.48C344.645,335.699 344.287,335.9 343.92,336.08C344.65,336.36 345.4,336.6 346.16,336.82C341.562,340.848 337.701,345.647 334.75,351C321.29,376.53 229.55,426.61 229.55,426.61C229.55,426.61 230.07,426.9 230.91,427.4C230.57,427.61 230.21,427.85 229.81,428.12C221.87,433.48 203.23,449.12 220.08,468.84C220.08,468.84 233.23,447.79 242.44,438.84C242.86,438.44 243.26,438.07 243.65,437.72C244.066,438.358 244.197,439.142 244.01,439.88L304.34,405.51C304.34,405.51 325.78,390.29 331.76,386.85C333.82,385.67 339.07,382.39 345.35,380.94L344.65,381.25C346.904,380.62 349.23,380.284 351.57,380.25C362.25,380.42 373.81,388.35 377.63,419.76C382.74,461.82 380.37,469.4 378.73,470.44C378.527,470.425 378.326,470.388 378.13,470.33C378.179,470.376 378.232,470.416 378.29,470.45C378.066,470.436 377.845,470.395 377.63,470.33C377.864,470.553 378.199,470.636 378.51,470.55C378.735,470.616 378.977,470.587 379.18,470.47C379.41,470.47 379.68,470.47 379.99,470.47C379.99,470.85 379.93,471.25 379.9,471.64C379.82,471.64 379.42,471.87 379.9,471.9C379.78,474.27 379.79,476.9 379.9,479.55C374.59,479.85 369.29,480.17 364.64,480.46L365.06,478.23L365.25,477.23C369.32,476.9 373.19,475.69 373.64,472.33C374.64,464.97 364.64,461.04 356.19,460.55C347.74,460.06 296.86,463.5 296.86,463.5C296.86,463.5 289.23,473.5 313.42,476.61C314.14,476.99 314.89,477.41 315.65,477.85C325.12,483.33 337.98,493.41 344.13,498.38L344.99,499.07L342.23,501.3C357.23,504.74 371.65,562.68 379.62,589.19C387.59,615.7 405.05,614.72 419.51,610.8C433.06,607.11 434.79,567.22 434.95,562.21C434.95,561.87 434.95,561.7 434.95,561.7L459.04,591.81L460.87,594.1C461.58,594.47 462.27,594.82 462.95,595.15C481.2,603.96 501.36,587.08 495.62,567.88C489.83,548.48 480.83,519.81 474.83,507.69C469.83,497.54 463.32,480.69 459.38,470.11C459.891,469.9 460.388,469.659 460.87,469.39C461.352,469.121 460.78,468.92 460.62,468.05L460.87,467.92C460.87,467.92 455.07,437.37 454.75,415.68L454.75,413.83C459.11,412.83 461.87,412.43 461.87,412.43L461.95,411.49L461.44,411.6L463.86,383.46C463.86,383.46 472.76,364.27 465.95,356.27C463.877,353.922 462.492,351.045 461.95,347.96C460.81,340.6 461.95,328.35 477.82,318.16C502.25,302.45 511.73,289.68 511.73,289.68C511.73,289.68 512.25,280.3 497.29,275.88ZM448.77,295.4L448.77,282.4C453.3,282.18 457.93,282.71 462.48,282.4C464.718,282.242 466.935,281.867 469.1,281.28L470.2,282.05C463.543,287.237 456.36,291.711 448.77,295.4ZM379.51,499.21C381.3,500.47 383.1,501.78 384.87,503.09C385.97,509.5 386.94,514.03 387.01,514.34C384.988,509.073 382.477,504.008 379.51,499.21Z" style="fill:url(#_Linear2);fill-rule:nonzero;"/>
    </g>
    <g transform="matrix(1.29802,0,0,1.29802,-181.645,-209.129)">
        <path d="M418.67,491L417.59,496.86L416.76,501.34L415.25,509.54L400.61,519.79C400.61,519.79 399.29,518.66 397.11,516.88C391.11,511.94 378.5,501.88 369.24,496.48C366.858,494.962 364.281,493.774 361.58,492.95L418.67,491Z" style="fill:rgb(255,189,198);fill-rule:nonzero;"/>
    </g>
    <g transform="matrix(1.29802,0,0,1.29802,-181.645,-209.129)">
        <path d="M418.67,491L417.59,496.86C414.361,497.035 411.123,496.868 407.93,496.36L373.77,496.85C372.16,496.75 370.65,496.63 369.24,496.48C366.858,494.962 364.281,493.774 361.58,492.95L418.67,491Z" style="fill-opacity:0.1;fill-rule:nonzero;"/>
    </g>
    <g transform="matrix(1.29802,0,0,1.29802,-181.645,-209.129)">
        <path d="M407.93,495.36C407.93,495.36 425,498.29 426,491C427,483.71 417.21,479.77 408.92,479.28C400.63,478.79 350.85,482.21 350.85,482.21C350.85,482.21 342.07,493.92 373.78,495.88L407.93,495.36Z" style="fill:rgb(71,68,99);fill-rule:nonzero;"/>
    </g>
    <g transform="matrix(1.29802,0,0,1.29802,-181.645,-209.129)">
        <path d="M418.67,491L417.59,496.86L416.76,501.34L415.25,509.54L400.61,519.79C400.61,519.79 399.29,518.66 397.11,516.88C391.11,511.94 378.5,501.88 369.24,496.48C366.858,494.962 364.281,493.774 361.58,492.95L418.67,491Z" style="fill-opacity:0.1;fill-rule:nonzero;"/>
    </g>
    <g transform="matrix(1.29802,0,0,1.29802,-181.645,-209.129)">
        <path d="M418.67,491L417.59,496.86C414.361,497.035 411.123,496.868 407.93,496.36L373.77,496.85C372.16,496.75 370.65,496.63 369.24,496.48C366.858,494.962 364.281,493.774 361.58,492.95L418.67,491Z" style="fill-opacity:0.1;fill-rule:nonzero;"/>
    </g>
    <g transform="matrix(1.29802,0,0,1.29802,-181.645,-209.129)">
        <path d="M407.93,495.34C407.93,495.34 425.01,498.26 425.99,490.94C426.97,483.62 417.2,479.72 408.91,479.23C400.62,478.74 350.84,482.16 350.84,482.16C350.84,482.16 342.06,493.87 373.77,495.82L407.93,495.34Z" style="fill-opacity:0.1;fill-rule:nonzero;"/>
    </g>
    <g transform="matrix(1.29802,0,0,1.29802,-58.0346,-169.955)">
        <rect x="260.73" y="224.62" width="89.3" height="105.89" style="fill:rgb(71,68,99);"/>
    </g>
    <g transform="matrix(1.29802,0,0,1.29802,-58.0346,-169.955)">
        <rect x="260.73" y="225.1" width="89.3" height="105.89" style="fill-opacity:0.1;"/>
    </g>
    <g transform="matrix(1.29802,0,0,1.29802,-181.645,-209.129)">
        <path d="M251.3,436.07C249.83,436.44 247.95,437.86 245.86,439.92C236.86,448.83 223.97,469.74 223.97,469.74C207.49,450.11 225.73,434.6 233.5,429.27C235.39,427.98 236.66,427.27 236.66,427.27L251.3,436.07Z" style="fill:rgb(255,189,198);fill-rule:nonzero;"/>
    </g>
    <g transform="matrix(1.29802,0,0,1.29802,-181.645,-209.129)">
        <path d="M417.69,288.22C417.69,288.22 422.08,318.96 437.21,326.28C452.34,333.6 417.69,347.28 417.69,347.28L370.36,329.7C370.36,329.7 397.2,320.91 391.83,295.05L417.69,288.22Z" style="fill:rgb(255,189,198);fill-rule:nonzero;"/>
    </g>
    <g transform="matrix(1.29802,0,0,1.29802,-181.645,-209.129)">
        <path d="M366.94,473.16L365.87,479L365,483.5L363.49,491.7L348.85,501.94C348.85,501.94 347.53,500.82 345.35,499.04C339.35,494.1 326.74,484.04 317.47,478.64C315.089,477.12 312.512,475.932 309.81,475.11L366.94,473.16Z" style="fill:rgb(255,189,198);fill-rule:nonzero;"/>
    </g>
    <g transform="matrix(1.29802,0,0,1.29802,-181.645,-209.129)">
        <path d="M366.94,473.16L365.87,479C362.641,479.175 359.403,479.008 356.21,478.5L322.05,478.99C320.44,478.89 318.92,478.77 317.51,478.62C315.129,477.1 312.552,475.912 309.85,475.09L366.94,473.16Z" style="fill-opacity:0.1;fill-rule:nonzero;"/>
    </g>
    <g transform="matrix(1.29802,0,0,1.29802,-181.645,-209.129)">
        <path d="M356.21,477.55C356.21,477.55 373.29,480.47 374.26,473.16C375.23,465.85 365.48,461.93 357.18,461.44C348.88,460.95 299.12,464.37 299.12,464.37C299.12,464.37 290.33,476.08 322.05,478.04L356.21,477.55Z" style="fill:rgb(71,68,99);fill-rule:nonzero;"/>
    </g>
    <g transform="matrix(1.29802,0,0,1.29802,-181.645,-209.129)">
        <path d="M365,483.5L363.49,491.7L348.85,501.94C348.85,501.94 347.53,500.82 345.35,499.04L364.71,483.16L365,483.5Z" style="fill-opacity:0.1;fill-rule:nonzero;"/>
    </g>
    <g transform="matrix(1.29802,0,0,1.29802,-181.645,-209.129)">
        <path d="M461.69,595.21C461.02,594.88 460.35,594.54 459.69,594.21L457.89,591.94L434.28,562C434.28,562 434.28,562.18 434.28,562.52C434.12,567.52 432.42,607.14 419.16,610.8C405.01,614.7 387.94,615.68 380.16,589.33C372.38,562.98 358.16,505.4 343.56,501.98L365.28,484.17C365.28,484.17 379.66,500.99 385.52,517.09C385.3,516.09 375.37,469.69 383.52,461.48L454.77,461.48C454.77,461.48 465.77,492.81 473.31,508.33C479.18,520.38 487.99,548.87 493.66,568.15C499.28,587.19 479.55,604 461.69,595.21Z" style="fill:rgb(71,68,99);fill-rule:nonzero;"/>
    </g>
    <g transform="matrix(1.29802,0,0,1.29802,-181.645,-209.129)">
        <path d="M459.66,470.23C448.66,476.74 400.37,474.09 384.66,473.03L380.38,472.72C379.92,472.72 380.45,472.46 380.45,472.46L380.89,468.03L392.6,438.27L455.3,401.91C454.03,405.74 453.61,411.6 453.71,418.31C454,439.87 459.66,470.23 459.66,470.23Z" style="fill-opacity:0.1;fill-rule:nonzero;"/>
    </g>
    <g transform="matrix(1.29802,0,0,1.29802,-181.645,-209.129)">
        <path d="M459.66,468.76C448.66,475.27 400.37,472.62 384.66,471.56L380.38,471.26L379.67,471.2L380.45,471L384.31,470L392.6,436.82L455.3,400.47C454.03,404.3 453.61,410.16 453.71,416.87C454,438.41 459.66,468.76 459.66,468.76Z" style="fill:rgb(242,241,242);fill-rule:nonzero;"/>
    </g>
    <g transform="matrix(1.29802,0,0,1.29802,-181.645,-209.129)">
        <path d="M453.67,416.85C440.92,419.79 412.86,428.42 402.08,449.25C394.89,463.12 388.84,469.07 384.62,471.56L380.34,471.26C380.368,471.175 380.391,471.088 380.41,471L384.27,470L392.56,436.82L455.26,400.47C454,404.28 453.57,410.14 453.67,416.85Z" style="fill-opacity:0.1;fill-rule:nonzero;"/>
    </g>
    <g transform="matrix(1.29802,0,0,1.29802,-181.645,-209.129)">
        <path d="M236.66,427.29L251.3,436.07C249.83,436.44 247.95,437.86 245.86,439.92C244.64,436.36 236.98,431.39 233.5,429.27C235.39,428 236.66,427.29 236.66,427.29Z" style="fill-opacity:0.1;fill-rule:nonzero;"/>
    </g>
    <g transform="matrix(1.29802,0,0,1.29802,-181.645,-209.129)">
        <path d="M377.73,471.83C377.402,472.001 376.999,471.944 376.73,471.69C377.055,471.785 377.392,471.832 377.73,471.83Z" style="fill-opacity:0.1;fill-rule:nonzero;"/>
    </g>
    <g transform="matrix(1.29802,0,0,1.29802,-181.645,-209.129)">
        <path d="M410.86,324.33C410.86,324.33 397.68,325.79 388.41,316.03C388.41,316.03 349.41,327.26 336.2,352.63C322.99,378 233.2,427.78 233.2,427.78C233.2,427.78 248.82,436.56 247.35,440.95L306.4,406.79C306.4,406.79 327.4,391.67 333.23,388.25C339.06,384.83 371.3,363.85 378.13,420.94C384.96,478.03 378.13,471.2 378.13,471.2C378.13,471.2 387.89,474.62 402.04,447.29C416.19,419.96 460.1,413.62 460.1,413.62L462.54,384.84C462.54,384.84 471.25,365.76 464.54,357.84C462.507,355.495 461.155,352.638 460.63,349.58C459.52,342.27 460.63,330.09 476.17,319.97C500.08,304.35 509.35,291.67 509.35,291.67C509.35,291.67 509.84,282.39 495.2,278C480.56,273.61 421.03,249.7 421.03,249.7L419.03,258L466,291.15C466,291.15 442.58,310.15 424,309.69C424,309.69 427.45,323.84 410.86,324.33Z" style="fill:rgb(255,116,142);fill-rule:nonzero;"/>
    </g>
    <g transform="matrix(1.29802,0,0,1.29802,-181.645,-209.129)">
        <path d="M419.9,301.6C418.746,297.689 417.844,293.707 417.2,289.68L391.34,296.51C392.48,301.446 392.276,306.599 390.75,311.43C401.538,314.309 413.059,310.424 419.9,301.6Z" style="fill-opacity:0.1;fill-rule:nonzero;"/>
    </g>
    <g transform="matrix(1.29802,0,0,1.29802,-58.0346,-169.955)">
        <circle cx="303.19" cy="252.92" r="27.81" style="fill:rgb(255,189,198);"/>
    </g>
    <g transform="matrix(1.29802,0,0,1.29802,-181.645,-209.129)">
        <path d="M413.21,219.85C420.93,220.72 428.26,224.04 435.86,225.85C437.758,226.444 439.781,226.523 441.72,226.08C444.67,225.16 447.07,222.08 450.13,222.17C452.01,222.17 453.68,223.51 455.23,224.74C457.718,226.64 460.058,228.726 462.23,230.98C467.47,236.67 470.72,244.33 475.5,250.52C480.28,256.71 487.82,261.52 494.61,258.68C489.99,276.68 474.86,290.39 458.49,291.51C451.96,291.95 445.27,290.59 438.95,292.51C437.375,293.151 435.713,293.555 434.02,293.71C430.38,293.71 427.45,290.37 425.18,287.12C419.86,279.48 415.65,270.8 409.66,263.83C407.66,261.53 405.35,259.34 402.55,258.92C399.75,258.5 397.18,259.83 394.69,261.12C390.58,263.25 386.38,265.46 383.19,269.12C380,272.78 377.99,278.22 379.31,283.12C380.02,285.78 381.64,288.18 381.67,290.96C381.73,295.39 377.81,298.64 377.04,302.96C376.866,304.774 376.803,306.598 376.85,308.42C376.51,314.34 372.64,319.19 368.6,322.91C367.02,324.36 365.28,325.91 364.82,328.15C364.51,329.67 364.82,331.29 364.62,332.83C364.03,336.67 360.2,338.62 356.81,339.13C352.849,339.707 348.806,339.227 345.09,337.74C349.83,335.49 352.75,329.12 351.65,323.4C350.14,315.48 342.18,309.8 342.86,301.73C343.236,299.257 343.977,296.854 345.06,294.6C346.796,290.249 348.056,285.722 348.82,281.1C349.42,277.52 349.71,273.73 348.59,270.33C347.59,267.22 345.5,264.76 343.73,262.14C341.328,258.572 339.434,254.689 338.1,250.6C337.613,249.393 337.427,248.085 337.56,246.79C337.949,245.238 338.804,243.842 340.01,242.79C344.36,238.22 349.01,233.46 354.84,232.16C357.621,231.69 360.451,231.579 363.26,231.83C368.145,231.988 373.036,231.781 377.89,231.21C381.89,230.74 388.65,230.81 392.04,228.21C395.2,225.78 396.98,222.75 400.87,221.21C404.811,219.76 409.048,219.293 413.21,219.85Z" style="fill-opacity:0.1;fill-rule:nonzero;"/>
    </g>
    <g transform="matrix(1.29802,0,0,1.29802,-181.645,-209.129)">
        <path d="M428.67,507.07C428.67,507.07 444.77,538.79 439.89,548.54" style="fill-opacity:0.1;fill-rule:nonzero;"/>
    </g>
    <g transform="matrix(1.29802,0,0,1.29802,-181.645,-209.129)">
        <path d="M457.86,591.9L434.28,562C434.28,562 434.28,562.18 434.28,562.52C434.28,562.52 432.92,552.84 437.41,556.09C447.25,563.21 462.99,574.88 463.33,576.89C463.67,578.9 460.14,586.93 457.86,591.9Z" style="fill-opacity:0.1;fill-rule:nonzero;"/>
    </g>
    <g>
        <g opacity="0.1">
            <g transform="matrix(1.29802,0,0,1.29802,-181.645,-209.129)">
                <path d="M424.52,309.69C424.52,309.69 426.52,317.93 420.08,322.05C429.98,320.36 430.42,312.65 430.08,309.3C428.242,309.595 426.381,309.725 424.52,309.69Z" style="fill-rule:nonzero;"/>
            </g>
            <g transform="matrix(1.29802,0,0,1.29802,-181.645,-209.129)">
                <path d="M239.1,425.82C239.1,425.82 328.88,376.05 342.1,350.68C351.55,332.47 374.33,321.55 386.43,316.83C377.61,319.83 347.89,331.14 336.73,352.63C323.56,378 233.73,427.78 233.73,427.78L239.1,425.82Z" style="fill-rule:nonzero;"/>
            </g>
            <g transform="matrix(1.29802,0,0,1.29802,-181.645,-209.129)">
                <path d="M442,305.81C457.28,301.06 471.88,289.2 471.88,289.2L425,256L426.07,251.46L421.58,249.66L419.63,257.96L466.48,291.14C458.972,297.043 450.746,301.972 442,305.81Z" style="fill-rule:nonzero;"/>
            </g>
            <g transform="matrix(1.29802,0,0,1.29802,-181.645,-209.129)">
                <path d="M442.27,418.26C448.254,416.218 454.394,414.666 460.63,413.62L460.71,412.68C454.428,414.061 448.263,415.926 442.27,418.26Z" style="fill-rule:nonzero;"/>
            </g>
            <g transform="matrix(1.29802,0,0,1.29802,-181.645,-209.129)">
                <path d="M385.49,469.38L385.06,469.38C384.731,469.548 384.33,469.492 384.06,469.24C384.385,469.335 384.722,469.382 385.06,469.38C386.66,468.45 389.06,461.16 384.06,418.98C378.68,373.98 357.51,377.49 345.93,382.67C357.77,379.41 374.06,382.23 378.69,420.93C383.74,463.11 381.33,470.4 379.69,471.33C381.771,471.252 383.785,470.575 385.49,469.38Z" style="fill-rule:nonzero;"/>
            </g>
            <g transform="matrix(1.29802,0,0,1.29802,-181.645,-209.129)">
                <path d="M379.69,471.34C379.352,471.342 379.015,471.295 378.69,471.2C378.96,471.452 379.361,471.508 379.69,471.34Z" style="fill-rule:nonzero;"/>
            </g>
        </g>
    </g>
    <g transform="matrix(1.29802,0,0,1.29802,-181.645,-209.129)">
        <path d="M413.21,218.87C420.93,219.75 428.26,223.06 435.86,224.87C437.759,225.461 439.782,225.536 441.72,225.09C444.67,224.18 447.07,221.09 450.13,221.18C452.01,221.24 453.68,222.52 455.23,223.75C457.716,225.652 460.056,227.738 462.23,229.99C467.47,235.68 470.72,243.34 475.5,249.53C480.28,255.72 487.82,260.53 494.61,257.69C489.99,275.69 474.86,289.4 458.49,290.52C451.96,290.97 445.27,289.61 438.95,291.52C437.376,292.165 435.714,292.57 434.02,292.72C430.38,292.72 427.45,289.38 425.18,286.13C419.86,278.49 415.65,269.82 409.66,262.85C407.66,260.54 405.35,258.35 402.55,257.93C399.75,257.51 397.18,258.85 394.69,260.14C390.58,262.27 386.38,264.47 383.19,268.14C380,271.81 377.99,277.23 379.31,282.14C380.02,284.8 381.64,287.2 381.67,289.98C381.73,294.42 377.81,297.66 377.04,301.98C376.866,303.794 376.803,305.618 376.85,307.44C376.51,313.36 372.64,318.2 368.6,321.93C367.02,323.37 365.28,324.93 364.82,327.16C364.51,328.69 364.82,330.3 364.62,331.85C364.03,335.69 360.2,337.64 356.81,338.14C352.85,338.726 348.803,338.246 345.09,336.75C349.83,334.51 352.75,328.13 351.65,322.42C350.14,314.5 342.18,308.81 342.86,300.75C343.234,298.277 343.976,295.874 345.06,293.62C346.795,289.265 348.055,284.735 348.82,280.11C349.42,276.54 349.71,272.75 348.59,269.34C347.59,266.24 345.5,263.77 343.73,261.15C341.33,257.585 339.436,253.705 338.1,249.62C337.615,248.409 337.43,247.098 337.56,245.8C337.961,244.267 338.815,242.89 340.01,241.85C344.36,237.28 349.01,232.53 354.84,231.22C357.622,230.758 360.451,230.651 363.26,230.9C368.145,231.053 373.035,230.846 377.89,230.28C381.89,229.81 388.65,229.87 392.04,227.28C395.2,224.86 396.98,221.82 400.87,220.28C404.809,218.82 409.043,218.336 413.21,218.87Z" style="fill:rgb(71,68,99);fill-rule:nonzero;"/>
    </g>
    <g transform="matrix(1.29802,0,0,1.29802,-58.0346,-169.955)">
        <circle cx="501.19" cy="461.76" r="56.07" style="fill:white;"/>
    </g>
    <g transform="matrix(1.29802,0,0,1.29802,-181.645,-209.129)">
        <path d="M670.09,484.55C670.09,525.661 636.261,559.49 595.15,559.49C554.039,559.49 520.21,525.661 520.21,484.55C520.21,443.439 554.039,409.61 595.15,409.61C636.261,409.61 670.09,443.439 670.09,484.55ZM586.49,524.22L642.08,468.63C642.988,467.724 643.499,466.493 643.499,465.21C643.499,463.927 642.988,462.696 642.08,461.79L635.24,455C634.336,454.092 633.106,453.581 631.825,453.581C630.544,453.581 629.314,454.092 628.41,455L583.07,500.34L561.9,479.12C560.021,477.251 556.939,477.251 555.06,479.12L548.22,486C546.351,487.879 546.351,490.961 548.22,492.84L579.65,524.26C580.556,525.168 581.787,525.679 583.07,525.679C584.353,525.679 585.584,525.168 586.49,524.26L586.49,524.22Z" style="fill:rgb(58,204,108);fill-rule:nonzero;"/>
    </g>
    <defs>
        <linearGradient id="_Linear1" x1="0" y1="0" x2="1" y2="0" gradientUnits="userSpaceOnUse" gradientTransform="matrix(1.59204e-17,-0.26,0.26,1.59204e-17,378.01,475.14)"><stop offset="0" style="stop-color:rgb(128,128,128);stop-opacity:0.247059"/><stop offset="0.54" style="stop-color:rgb(128,128,128);stop-opacity:0.117647"/><stop offset="1" style="stop-color:rgb(128,128,128);stop-opacity:0.0980392"/></linearGradient>
        <linearGradient id="_Linear2" x1="0" y1="0" x2="1" y2="0" gradientUnits="userSpaceOnUse" gradientTransform="matrix(2.42841e-14,-396.59,396.59,2.42841e-14,362.5,612.82)"><stop offset="0" style="stop-color:rgb(128,128,128);stop-opacity:0.247059"/><stop offset="0.54" style="stop-color:rgb(128,128,128);stop-opacity:0.117647"/><stop offset="1" style="stop-color:rgb(128,128,128);stop-opacity:0.0980392"/></linearGradient>
    </defs>
</svg>
